<svg width="453" height="350" viewBox="0 0 453 350" fill="none" xmlns="http://www.w3.org/2000/svg">
<path d="M303.834 232.276C302.469 230.764 305.687 221.928 320.959 221.303C336.23 220.677 342.348 226.238 342.37 232.276C342.382 234.948 303.834 232.276 303.834 232.276Z" fill="#455A64"/>
<path d="M296.295 1.12574L279.329 106.046H434.271L452.942 0L296.295 1.12574Z" fill="#F5F5F5"/>
<path d="M294.749 10.666C294.817 10.3022 451.168 10.0747 451.168 10.0747L452.942 0L296.295 1.1371L294.749 10.6888" fill="#E0E0E0"/>
<path d="M302.845 5.84471C302.847 6.13081 302.764 6.41113 302.607 6.6501C302.45 6.88908 302.225 7.07594 301.961 7.18699C301.698 7.29804 301.407 7.32826 301.126 7.27383C300.845 7.2194 300.587 7.08277 300.384 6.88127C300.18 6.67977 300.042 6.42248 299.985 6.14204C299.928 5.8616 299.956 5.57065 300.065 5.30611C300.174 5.04157 300.359 4.81536 300.597 4.65617C300.835 4.49698 301.115 4.41198 301.401 4.41197C301.59 4.41047 301.777 4.44641 301.952 4.51774C302.128 4.58907 302.287 4.69438 302.421 4.82758C302.555 4.96077 302.662 5.11922 302.735 5.29379C302.807 5.46837 302.845 5.6556 302.845 5.84471Z" fill="#263238"/>
<path d="M309.895 5.8447C309.895 6.12807 309.811 6.40509 309.653 6.6407C309.496 6.87632 309.272 7.05995 309.01 7.16839C308.749 7.27683 308.46 7.30521 308.183 7.24992C307.905 7.19464 307.649 7.05819 307.449 6.85781C307.249 6.65744 307.112 6.40215 307.057 6.12422C307.002 5.8463 307.03 5.55821 307.138 5.29641C307.247 5.03461 307.43 4.81084 307.666 4.65341C307.902 4.49598 308.179 4.41196 308.462 4.41196C308.842 4.41196 309.206 4.56291 309.475 4.8316C309.744 5.1003 309.895 5.46471 309.895 5.8447Z" fill="#263238"/>
<path d="M316.956 5.84471C316.958 6.13081 316.876 6.41113 316.718 6.6501C316.561 6.88908 316.336 7.07594 316.073 7.18699C315.809 7.29804 315.518 7.32826 315.237 7.27383C314.956 7.2194 314.698 7.08277 314.495 6.88127C314.292 6.67977 314.153 6.42248 314.096 6.14204C314.04 5.8616 314.068 5.57065 314.177 5.30611C314.286 5.04157 314.471 4.81536 314.708 4.65617C314.946 4.49698 315.226 4.41198 315.512 4.41197C315.701 4.41047 315.889 4.44641 316.064 4.51774C316.239 4.58907 316.398 4.69438 316.532 4.82758C316.667 4.96077 316.773 5.11922 316.846 5.29379C316.919 5.46837 316.956 5.6556 316.956 5.84471V5.84471Z" fill="#263238"/>
<path d="M334.456 57.7989L315.069 80.2226C311.408 77.7387 308.4 74.4089 306.3 70.5153C304.199 66.6217 303.069 62.2792 303.004 57.8558C303.004 42.2661 317.206 29.4282 334.456 29.4282C351.706 29.4282 365.908 42.2547 365.908 57.8558L334.456 57.7989Z" fill="#EE4248"/>
<path d="M336.946 61.3581C336.852 61.5168 336.742 61.6654 336.617 61.8015L335.605 63.0069L331.761 67.5553C328.418 71.4669 323.665 76.9932 317.968 83.6453V83.2814C322.263 86.2383 327.226 88.0825 332.409 88.6485C338.261 89.3233 344.188 88.4285 349.58 86.0559C354.726 83.8206 359.17 80.233 362.44 75.6742C363.914 73.5483 365.095 71.2346 365.954 68.7947C366.703 66.5157 367.158 64.1503 367.307 61.756L367.557 62.0176L345.384 61.6423L339.152 61.5059L337.504 61.449C337.311 61.4671 337.117 61.4671 336.924 61.449C337.105 61.4315 337.288 61.4315 337.47 61.449H339.096H345.293L367.557 61.5968H367.83V61.8698C367.701 64.3176 367.25 66.7377 366.488 69.0676C365.625 71.56 364.427 73.9239 362.929 76.0949C359.599 80.7754 355.048 84.4527 349.773 86.7268C344.281 89.1296 338.25 90.0321 332.296 89.3422C327.024 88.7438 321.983 86.8448 317.627 83.8158L317.4 83.6566L317.582 83.4406L331.613 67.4416L335.536 63.0069L336.583 61.8698C336.689 61.6889 336.81 61.5177 336.946 61.3581V61.3581Z" fill="#263238"/>
<path d="M347.828 42.6755C348.802 42.6755 349.591 41.8864 349.591 40.9129C349.591 39.9395 348.802 39.1505 347.828 39.1505C346.855 39.1505 346.066 39.9395 346.066 40.9129C346.066 41.8864 346.855 42.6755 347.828 42.6755Z" fill="#263238"/>
<path d="M384.602 28.0182C384.053 28.1034 383.498 28.1414 382.942 28.1319L378.394 28.2229C374.585 28.2229 369.297 28.3138 363.509 28.3138H360.735L360.939 28.2342C357.289 31.873 354.037 35.0569 351.683 37.3311L348.897 39.9919C348.579 40.3375 348.221 40.643 347.828 40.9016C348.105 40.5233 348.413 40.1695 348.75 39.8441C349.443 39.1049 350.341 38.1725 351.41 37.0581C353.685 34.7043 356.891 31.4522 360.507 27.7908L360.587 27.7112H363.577C369.388 27.7112 374.653 27.7112 378.462 27.7908L383.01 27.8931C383.544 27.8844 384.077 27.9263 384.602 28.0182V28.0182Z" fill="#263238"/>
<path d="M424.537 50.169C424.545 49.966 424.571 49.7642 424.617 49.5663C424.685 49.1569 424.776 48.5998 424.901 47.8834L426.038 41.527L430.143 18.7167L430.382 19.001L386.342 19.0579L386.626 18.8191V18.9328V19.0692V19.3307L386.524 19.8538L386.331 20.9113L385.944 23.0036C385.682 24.3908 385.432 25.7667 385.171 27.1313C384.67 29.8603 384.174 32.5439 383.681 35.182C382.692 40.4354 381.748 45.4159 380.873 50.2031L380.6 49.8847L412.325 50.0098L421.422 50.0894H423.844H424.469H424.696H424.503H423.9H421.524L412.518 50.1576L380.679 50.2827H380.361L380.418 49.9643C381.293 45.2226 382.214 40.1852 383.192 34.9204C383.67 32.2937 384.17 29.6102 384.67 26.8811C384.932 25.5052 385.182 24.1293 385.444 22.7421C385.569 22.0484 385.694 21.3548 385.83 20.6498L386.024 19.6037L386.115 19.0806L386.171 18.8077V18.6826V18.5803L386.467 18.3301L430.507 18.3869H430.666L430.609 18.6712C428.79 28.1888 427.289 36.0462 426.243 41.5611C425.708 44.256 425.299 46.371 425.003 47.8606L424.674 49.4867C424.583 49.9984 424.537 50.1804 424.537 50.169Z" fill="#263238"/>
<path d="M350.592 78.1303C351.565 78.1303 352.354 77.3412 352.354 76.3678C352.354 75.3944 351.565 74.6053 350.592 74.6053C349.618 74.6053 348.829 75.3944 348.829 76.3678C348.829 77.3412 349.618 78.1303 350.592 78.1303Z" fill="#263238"/>
<path d="M382.59 76.3678C382.59 76.5384 375.426 76.6635 366.591 76.6635C357.755 76.6635 350.592 76.5384 350.592 76.3678C350.592 76.1972 357.755 76.0722 366.591 76.0722C375.426 76.0722 382.59 76.2086 382.59 76.3678Z" fill="#263238"/>
<path d="M424.537 90.104C424.551 89.958 424.578 89.8134 424.617 89.6719C424.685 89.3649 424.776 88.9555 424.901 88.4438C425.163 87.3067 425.538 85.7944 426.038 83.8158C427.028 79.7905 428.438 74.0481 430.177 66.9867L430.393 67.2596L384.978 67.3278L385.262 67.1118V67.18V67.271V67.4643L385.159 67.8509L384.966 68.6014L384.591 70.1251C384.329 71.1258 384.079 72.1264 383.829 73.1271L382.214 79.0855C381.236 82.9403 380.293 86.67 379.383 90.2291L379.121 89.888L411.699 90.013L421.115 90.0813H423.639H424.299H424.537H424.333H423.696H421.228L411.859 90.1495L379.121 90.2746H378.758L378.849 89.9221C379.747 86.3629 380.679 82.6219 381.646 78.7671C382.131 76.834 382.628 74.8744 383.135 72.8883L383.886 69.8863L384.273 68.374L384.466 67.6121L384.557 67.2255V67.0436V66.9412V66.873L384.841 66.6456L430.257 66.7252H430.666L430.598 66.9981C428.756 74.0936 427.266 79.8587 426.22 83.8954C425.697 85.8399 425.288 87.375 425.004 88.4438C424.867 88.9328 424.765 89.3194 424.685 89.5809C424.606 89.8425 424.537 90.1154 424.537 90.104Z" fill="#263238"/>
<path d="M420.955 28.4162C420.955 28.5868 414.212 28.7118 405.889 28.7118C397.565 28.7118 390.822 28.5868 390.822 28.4162C390.822 28.2456 397.565 28.1205 405.889 28.1205C414.212 28.1205 420.955 28.257 420.955 28.4162Z" fill="#263238"/>
<path d="M420.603 33.3512C420.603 33.5218 413.78 33.6469 405.457 33.6469C397.133 33.6469 390.299 33.5218 390.299 33.3512C390.299 33.1806 397.122 33.0556 405.457 33.0556C413.792 33.0556 420.603 33.192 420.603 33.3512Z" fill="#263238"/>
<path d="M419.727 38.1498C419.727 38.309 413.178 38.4454 405.104 38.4454C397.031 38.4454 390.47 38.309 390.47 38.1498C390.47 37.9906 397.019 37.8542 405.104 37.8542C413.189 37.8542 419.727 37.9451 419.727 38.1498Z" fill="#263238"/>
<path d="M420.251 75.822C420.251 75.9812 413.826 76.1177 405.889 76.1177C397.952 76.1177 391.527 75.9812 391.527 75.822C391.527 75.6628 397.963 75.5264 405.889 75.5264C413.815 75.5264 420.251 75.6742 420.251 75.822Z" fill="#263238"/>
<path d="M418.488 81.2801C418.488 81.4506 413.007 81.5757 406.241 81.5757C399.476 81.5757 393.995 81.4506 393.995 81.2801C393.995 81.1095 399.476 80.9844 406.241 80.9844C413.007 80.9844 418.488 81.1209 418.488 81.2801Z" fill="#263238"/>
<path d="M235.471 195.525C234.925 198.72 219.756 232.287 229.547 232.287H278.761C278.761 232.287 273.678 227.511 289.063 195.525H235.471Z" fill="#455A64"/>
<path d="M203.632 83.4861L183.517 201.04H353.184L373.993 79.3584L203.632 83.4861Z" fill="#455A64"/>
<path d="M209.398 89.2171L192.443 194.149H347.374L366.045 88.1027L209.398 89.2171Z" fill="#FAFAFA"/>
<path d="M373.993 79.3584L377.2 81.5189L355.595 204.235H187.997L183.517 201.04H353.184L373.993 79.3584Z" fill="#263238"/>
<path d="M207.862 98.7688C207.919 98.3935 364.271 98.1775 364.271 98.1775L366.045 88.1027L209.398 89.2398L207.862 98.7915" fill="#EBEBEB"/>
<path d="M322.96 184.836V184.54L323.096 183.665C323.24 182.831 323.434 181.694 323.676 180.254C324.211 177.195 324.961 172.806 325.894 167.359C327.827 156.329 330.522 140.978 333.58 123.558V123.307H346.384L346.327 123.66C341.586 149.347 337.435 171.919 335.036 184.893V185.029H334.911L325.996 184.938H323.722H323.165H323.779H326.132L334.945 184.847L334.786 184.973L345.793 123.694L346.089 124.035H333.899L334.183 123.796C331.033 141.114 328.27 156.363 326.223 167.336C325.223 172.794 324.404 177.195 323.836 180.265C323.551 181.755 323.335 182.926 323.176 183.767C323.096 184.142 323.04 184.449 322.994 184.677C322.985 184.73 322.973 184.783 322.96 184.836V184.836Z" fill="#263238"/>
<path d="M303.311 184.836C303.326 184.56 303.368 184.286 303.436 184.017C303.538 183.415 303.686 182.607 303.868 181.584C304.277 179.389 304.846 176.285 305.562 172.487C307.052 164.607 309.133 153.645 311.509 141.114V140.876H324.313L324.245 141.228C320.652 159.047 317.422 174.886 315.421 184.927V185.075H315.273L306.37 184.972H304.096C303.842 184.99 303.587 184.99 303.334 184.972H304.175H306.54L315.319 184.87L315.137 185.018C317.115 174.966 320.231 159.115 323.733 141.274L324.018 141.626H311.76L312.044 141.399C309.576 153.816 307.416 164.687 305.858 172.498C305.073 176.376 304.448 179.492 303.993 181.686L303.481 184.177C303.481 184.438 303.368 184.654 303.334 184.825L303.311 184.836Z" fill="#263238"/>
<path d="M283.582 184.836C283.572 184.715 283.572 184.593 283.582 184.472L283.764 183.335C283.935 182.334 284.173 180.902 284.492 179.06C285.151 175.296 286.095 169.872 287.278 163.14C289.688 149.495 293.043 130.608 296.841 109.196V108.957H309.645L309.588 109.298C303.652 141.808 298.41 170.133 295.635 184.836V184.961H295.51L286.561 184.87H284.287H283.537H284.344H286.675L295.522 184.791L295.385 184.904C297.978 170.122 303.095 141.819 309.03 109.321L309.326 109.674H297.171L297.455 109.423C293.577 130.721 290.143 149.552 287.664 163.095C286.413 169.849 285.39 175.296 284.708 179.071L283.889 183.403C283.798 183.881 283.73 184.256 283.673 184.54L283.582 184.836Z" fill="#263238"/>
<path d="M263.887 184.836C263.896 184.645 263.919 184.455 263.956 184.267C264.035 183.824 264.126 183.267 264.24 182.562C264.502 180.993 264.877 178.809 265.377 176.092C266.366 170.463 267.742 162.651 269.323 153.623V153.384H282.115L282.047 153.736C279.693 166.017 277.578 177.07 276.077 184.882V185.052H275.918L267.049 184.938L264.649 184.836C264.388 184.852 264.126 184.852 263.865 184.836H264.729H267.128L275.861 184.722L275.656 184.882C277.112 177.07 279.17 165.994 281.444 153.702L281.74 154.055H269.562L269.835 153.827C268.152 162.754 266.708 170.474 265.65 176.035C265.127 178.764 264.695 180.97 264.388 182.55C264.24 183.267 264.126 183.858 264.035 184.302C263.996 184.482 263.947 184.661 263.887 184.836V184.836Z" fill="#263238"/>
<path d="M244.181 184.836C244.181 184.836 244.181 184.756 244.181 184.597C244.181 184.438 244.181 184.154 244.284 183.858C244.398 183.165 244.545 182.209 244.739 180.981C245.159 178.423 245.751 174.761 246.49 170.213C248.036 160.957 250.174 148.085 252.619 133.428V133.189H265.423L265.354 133.541C261.602 154.726 258.293 173.454 256.258 184.87V185.018H256.121L247.229 184.916H244.898C244.644 184.932 244.39 184.932 244.136 184.916H244.352H244.966H247.331L256.121 184.825L255.951 184.961L264.797 133.587L265.093 133.939H252.96L253.244 133.701C250.708 148.255 248.48 160.991 246.876 170.213C246.058 174.761 245.41 178.457 244.943 181.038C244.716 182.278 244.545 183.312 244.409 183.961L244.261 184.734L244.181 184.836Z" fill="#263238"/>
<path d="M224.51 184.836C224.495 184.727 224.495 184.616 224.51 184.506C224.51 184.256 224.601 183.926 224.669 183.506C224.828 182.585 225.044 181.231 225.328 179.594C225.908 176.183 226.761 171.191 227.807 165.028C229.968 152.576 232.981 135.247 236.392 115.632V115.393H249.196L249.139 115.746C243.84 145.219 239.156 170.986 236.574 184.87V184.995H236.449L227.523 184.904H225.249H224.703H225.306H227.637L236.472 184.813L236.324 184.938C238.735 171.02 243.306 145.231 248.605 115.768L248.889 116.11H236.711L236.995 115.871C233.504 135.383 230.411 152.611 228.194 164.994C227.057 171.179 226.158 176.149 225.522 179.605C225.215 181.311 224.964 182.63 224.794 183.574C224.703 184.006 224.646 184.347 224.589 184.609C224.532 184.87 224.51 184.836 224.51 184.836Z" fill="#263238"/>
<path d="M215.947 93.9474C215.95 94.2335 215.867 94.5138 215.709 94.7528C215.552 94.9918 215.327 95.1786 215.064 95.2897C214.8 95.4007 214.509 95.4309 214.228 95.3765C213.948 95.3221 213.689 95.1854 213.486 94.9839C213.283 94.7824 213.144 94.5252 213.088 94.2447C213.031 93.9643 213.059 93.6733 213.168 93.4088C213.277 93.1442 213.462 92.918 213.7 92.7588C213.937 92.5997 214.217 92.5147 214.503 92.5146C214.884 92.5146 215.25 92.6652 215.52 92.9336C215.791 93.202 215.944 93.5664 215.947 93.9474V93.9474Z" fill="#263238"/>
<path d="M221.565 95.3802C222.356 95.3802 222.997 94.7387 222.997 93.9474C222.997 93.1561 222.356 92.5146 221.565 92.5146C220.773 92.5146 220.132 93.1561 220.132 93.9474C220.132 94.7387 220.773 95.3802 221.565 95.3802Z" fill="#263238"/>
<path d="M230.059 93.9474C230.061 94.234 229.978 94.5147 229.82 94.7539C229.662 94.9932 229.437 95.18 229.173 95.2907C228.908 95.4014 228.617 95.431 228.336 95.3756C228.054 95.3203 227.796 95.1825 227.594 94.9799C227.391 94.7772 227.253 94.5189 227.198 94.2377C227.142 93.9565 227.172 93.6652 227.283 93.4008C227.393 93.1365 227.58 92.9111 227.819 92.7533C228.059 92.5955 228.339 92.5124 228.626 92.5146C229.005 92.5176 229.368 92.6695 229.636 92.9376C229.904 93.2056 230.056 93.5683 230.059 93.9474Z" fill="#263238"/>
<path d="M204.815 184.836C204.815 184.836 204.815 184.54 204.94 183.96C205.065 183.381 205.179 182.471 205.361 181.379C205.759 179.105 206.316 175.773 207.01 171.691C208.465 163.345 210.478 151.746 212.786 138.51V138.272H225.59L225.522 138.624C222.008 157.568 218.881 174.375 216.937 184.882V185.029H216.8L207.897 184.927H205.622C205.365 184.943 205.107 184.943 204.849 184.927H205.077H205.691H208.056L216.846 184.825L216.664 184.972L225.021 138.681L225.306 139.022H213.07L213.355 138.783C210.955 151.917 208.806 163.424 207.351 171.691C206.578 175.796 205.964 179.105 205.52 181.425C205.315 182.562 205.145 183.426 205.02 184.063L204.883 184.756C204.862 184.784 204.839 184.811 204.815 184.836Z" fill="#263238"/>
<path d="M337.731 138.567H272.825L276.532 116.78H341.893L337.731 138.567Z" fill="#EE4248"/>
<path d="M272.825 138.567L271.563 146.175C271.563 146.175 280.091 138.272 279.955 138.272H272.882" fill="#EE4248"/>
<path d="M332.102 124.354C332.102 124.513 321.288 124.649 307.962 124.649C294.635 124.649 283.81 124.513 283.81 124.354C283.81 124.194 294.623 124.058 307.962 124.058C321.3 124.058 332.102 124.194 332.102 124.354Z" fill="#FAFAFA"/>
<path d="M331.465 129.618C331.465 129.778 320.652 129.914 307.325 129.914C293.998 129.914 283.173 129.778 283.173 129.618C283.173 129.459 293.987 129.323 307.325 129.323C320.663 129.323 331.465 129.448 331.465 129.618Z" fill="#FAFAFA"/>
<path d="M437.625 239.815H252.71V347.715H437.625V239.815Z" fill="#263238"/>
<path d="M336.946 239.815H252.71V347.715H336.946V239.815Z" fill="#455A64"/>
<path d="M328.327 276.464C328.327 276.464 328.327 276.27 328.327 275.918C328.327 275.565 328.327 275.02 328.327 274.349C328.327 272.95 328.327 270.937 328.27 268.356C328.27 263.171 328.213 255.7 328.156 246.49L328.372 246.706L260.612 246.785C260.351 247.058 260.965 246.433 260.908 246.501V254.302C260.908 256.883 260.908 259.43 260.908 261.932C260.908 266.946 260.908 271.813 260.908 276.464L260.635 276.191L309.201 276.316L323.29 276.396H327.065H328.054H328.395C328.293 276.406 328.19 276.406 328.088 276.396H327.133H323.415L309.394 276.475L260.635 276.612H260.351V276.327C260.351 271.677 260.351 266.81 260.351 261.795V246.501C260.283 246.501 260.908 245.933 260.647 246.194L328.327 246.24H328.543V246.444C328.543 255.712 328.452 263.217 328.429 268.447C328.429 271.006 328.429 272.996 328.372 274.383C328.372 275.031 328.372 275.52 328.372 275.918C328.371 276.101 328.355 276.283 328.327 276.464V276.464Z" fill="#263238"/>
<path d="M297.364 261.477C297.364 261.477 297.296 261.227 297.159 260.806C296.969 260.224 296.599 259.718 296.102 259.362C295.743 259.102 295.326 258.936 294.887 258.878C294.448 258.821 294.002 258.874 293.589 259.032C293.089 259.218 292.658 259.553 292.354 259.991C292.05 260.429 291.887 260.949 291.887 261.482C291.887 262.016 292.05 262.536 292.354 262.974C292.658 263.412 293.089 263.747 293.589 263.933C294.003 264.085 294.448 264.135 294.886 264.077C295.323 264.02 295.741 263.857 296.102 263.603C296.599 263.246 296.969 262.741 297.159 262.159C297.296 261.738 297.307 261.477 297.364 261.477C297.421 261.477 297.455 261.738 297.364 262.216C297.232 262.892 296.866 263.5 296.329 263.933C295.923 264.263 295.439 264.483 294.923 264.573C294.408 264.663 293.878 264.618 293.384 264.445C292.77 264.23 292.238 263.829 291.861 263.298C291.485 262.768 291.282 262.133 291.282 261.482C291.282 260.832 291.485 260.197 291.861 259.666C292.238 259.136 292.77 258.735 293.384 258.52C293.877 258.348 294.406 258.304 294.921 258.391C295.436 258.479 295.92 258.695 296.329 259.021C296.867 259.457 297.234 260.069 297.364 260.749C297.455 261.227 297.398 261.488 297.364 261.477Z" fill="#263238"/>
<path d="M328.327 309.463C328.327 309.463 328.327 309.269 328.327 308.917C328.327 308.564 328.327 308.007 328.327 307.336C328.327 305.938 328.327 303.925 328.27 301.355C328.27 296.158 328.213 288.699 328.157 279.488L328.373 279.705L260.613 279.784L260.908 279.488V287.278C260.908 289.859 260.908 292.395 260.908 294.908C260.908 299.922 260.908 304.778 260.908 309.44L260.635 309.155L309.201 309.292L323.29 309.372H327.065H328.054C328.168 309.362 328.282 309.362 328.395 309.372H328.088H327.133H323.415L309.394 309.451L260.635 309.588H260.351V309.303C260.351 304.641 260.351 299.786 260.351 294.771V279.511L260.647 279.216L328.407 279.295H328.623V279.511C328.623 288.779 328.532 296.283 328.509 301.503C328.509 304.061 328.509 306.051 328.452 307.45C328.452 308.098 328.452 308.587 328.452 308.974C328.421 309.139 328.379 309.302 328.327 309.463Z" fill="#263238"/>
<path d="M297.364 294.475C297.364 294.475 297.296 294.214 297.159 293.793C296.969 293.212 296.599 292.706 296.102 292.349C295.741 292.095 295.323 291.932 294.886 291.875C294.448 291.817 294.003 291.867 293.589 292.019C293.089 292.206 292.658 292.54 292.354 292.978C292.05 293.416 291.887 293.937 291.887 294.47C291.887 295.003 292.05 295.523 292.354 295.961C292.658 296.399 293.089 296.734 293.589 296.92C294.002 297.077 294.447 297.13 294.885 297.075C295.323 297.019 295.741 296.857 296.102 296.602C296.602 296.243 296.973 295.733 297.159 295.146C297.296 294.726 297.307 294.475 297.364 294.475C297.421 294.475 297.455 294.737 297.364 295.203C297.236 295.884 296.869 296.497 296.329 296.932C295.922 297.26 295.437 297.478 294.922 297.566C294.406 297.653 293.877 297.607 293.384 297.432C292.77 297.217 292.238 296.816 291.861 296.286C291.485 295.755 291.282 295.12 291.282 294.47C291.282 293.819 291.485 293.185 291.861 292.654C292.238 292.123 292.77 291.723 293.384 291.508C293.878 291.334 294.408 291.29 294.923 291.379C295.439 291.469 295.923 291.689 296.329 292.019C296.869 292.454 297.236 293.067 297.364 293.748C297.455 294.214 297.398 294.475 297.364 294.475Z" fill="#263238"/>
<path d="M328.327 342.45C328.327 342.45 328.327 342.257 328.327 341.904C328.327 341.552 328.327 341.006 328.327 340.335C328.327 338.936 328.327 336.924 328.27 334.342C328.27 329.157 328.213 321.686 328.156 312.476L328.372 312.692L260.612 312.771C260.351 313.044 260.965 312.419 260.908 312.487V320.288C260.908 322.869 260.908 325.416 260.908 327.918C260.908 332.932 260.908 337.799 260.908 342.45L260.635 342.177L309.201 342.302L323.29 342.382H327.065H328.054H328.395C328.293 342.392 328.19 342.392 328.088 342.382H327.133H323.415L309.394 342.45L260.635 342.586H260.351V342.302C260.351 337.651 260.351 332.784 260.351 327.77V312.487C260.283 312.544 260.908 311.919 260.647 312.18L328.407 312.271H328.623V312.476C328.623 321.743 328.532 329.259 328.509 334.479C328.509 337.037 328.509 339.027 328.452 340.414C328.452 341.074 328.452 341.552 328.452 341.95C328.422 342.119 328.38 342.286 328.327 342.45V342.45Z" fill="#263238"/>
<path d="M297.364 327.463C297.364 327.463 297.296 327.213 297.159 326.792C296.969 326.21 296.599 325.704 296.102 325.348C295.742 325.091 295.325 324.927 294.886 324.869C294.448 324.812 294.002 324.863 293.589 325.018C293.089 325.204 292.658 325.539 292.354 325.977C292.05 326.415 291.887 326.935 291.887 327.468C291.887 328.002 292.05 328.522 292.354 328.96C292.658 329.398 293.089 329.733 293.589 329.919C294.002 330.074 294.448 330.125 294.886 330.068C295.325 330.01 295.742 329.846 296.102 329.589C296.599 329.232 296.969 328.727 297.159 328.145C297.296 327.724 297.307 327.463 297.364 327.463C297.421 327.463 297.455 327.724 297.364 328.202C297.231 328.881 296.865 329.492 296.329 329.93C295.92 330.256 295.436 330.472 294.921 330.56C294.406 330.647 293.877 330.603 293.384 330.431C292.77 330.216 292.238 329.815 291.861 329.284C291.485 328.754 291.282 328.119 291.282 327.468C291.282 326.818 291.485 326.183 291.861 325.653C292.238 325.122 292.77 324.721 293.384 324.506C293.877 324.334 294.406 324.29 294.921 324.377C295.436 324.465 295.92 324.681 296.329 325.007C296.867 325.443 297.234 326.055 297.364 326.735C297.455 327.213 297.398 327.474 297.364 327.463Z" fill="#263238"/>
<path d="M161.514 239.815H5.96985V347.715H161.514V239.815Z" fill="#263238"/>
<path d="M444.323 232.287H0V242.544H444.323V232.287Z" fill="#263238"/>
<path d="M19.7515 242.544H5.96985V347.715H19.7515V242.544Z" fill="#455A64"/>
<path d="M178.719 69.9886C178.627 69.5572 178.562 69.1204 178.525 68.681C178.36 67.5122 177.974 66.3854 177.388 65.3606C177.008 64.6743 176.43 64.1192 175.728 63.7687C175.332 63.5988 174.895 63.5502 174.472 63.6292C174.049 63.7081 173.659 63.911 173.351 64.2121C172.034 65.8471 171.316 67.8834 171.316 69.9829C171.316 72.0824 172.034 74.1187 173.351 75.7537C173.658 76.0567 174.047 76.2618 174.47 76.3428C174.894 76.4238 175.331 76.377 175.728 76.2086C176.428 75.8504 177.006 75.2924 177.388 74.6053C177.974 73.5804 178.36 72.4537 178.525 71.2849C178.562 70.8491 178.626 70.4161 178.719 69.9886C178.792 70.429 178.792 70.8786 178.719 71.319C178.642 72.5437 178.305 73.7379 177.729 74.8213C177.318 75.6026 176.68 76.2409 175.899 76.652C175.435 76.8739 174.916 76.9492 174.409 76.8681C173.879 76.7643 173.386 76.5254 172.976 76.1745C171.508 74.4476 170.703 72.255 170.703 69.9886C170.703 67.7222 171.508 65.5297 172.976 63.8028C173.382 63.4441 173.877 63.2007 174.409 63.0978C174.916 63.0223 175.434 63.0974 175.899 63.3138C176.68 63.725 177.318 64.3633 177.729 65.1446C178.307 66.2315 178.644 67.4297 178.719 68.6582C178.791 69.0987 178.791 69.5482 178.719 69.9886V69.9886Z" fill="#263238"/>
<path d="M129.63 47.7583L126.219 115.893L155.488 118.645L157.102 102.1C157.102 102.1 167.336 104.648 170.52 95.13C172.51 89.0465 174.284 41.4132 174.284 41.4132L129.63 47.7583Z" fill="#FFBE9D"/>
<path d="M180.504 48.4405C178.014 54.3648 168.621 59.4477 168.621 59.4477L167.086 74.537C165.689 74.4407 164.287 74.4407 162.89 74.537C163.641 67.4529 154.532 68.8515 153.6 73.6615C152.713 78.3009 158.001 81.4051 158.001 81.4051C154.35 86.9997 152.872 89.9562 147.687 95.1982C142.092 100.884 139.079 101.339 133.291 101.168L126.912 100.872C126.912 100.872 124.638 95.4256 122.989 82.565C122.182 76.3792 117.304 68.2716 118.725 58.2083C122.637 29.6329 154.259 34.7043 154.259 34.7043C166.131 25.4711 186.371 34.511 180.504 48.4405Z" fill="#263238"/>
<path d="M178.718 70.0683C176.56 70.4843 174.367 70.6975 172.169 70.705C169.982 70.899 167.783 70.899 165.596 70.705C167.752 70.2958 169.941 70.0864 172.135 70.0796C174.325 69.8851 176.528 69.8813 178.718 70.0683Z" fill="#263238"/>
<path d="M271.961 150.109L261.329 156.693L257.429 165.79V157.83C257.429 157.83 260.317 154.419 262.682 151.928C265.047 149.438 263.353 147.71 262.682 146.857C262.011 146.004 251.834 157.83 251.834 157.83V164.652C247.093 158.819 244.898 160.82 244.17 161.878C243.442 162.935 251.834 170.85 251.834 170.85V173.26L210.137 195.684L199.164 168.394L176.751 180.163L190.135 212.559C191.058 214.8 192.452 216.816 194.223 218.471C195.994 220.126 198.1 221.38 200.398 222.149C202.697 222.918 205.134 223.184 207.544 222.928C209.954 222.672 212.281 221.901 214.367 220.666L263.433 191.659L266.696 186.212C267.829 184.335 268.496 182.214 268.641 180.026L270.335 155.521C273.314 153.657 271.961 150.109 271.961 150.109Z" fill="#FFBE9D"/>
<path d="M210.341 195.718C209.351 199.555 207.971 203.281 206.225 206.839C207.229 203.006 208.608 199.281 210.341 195.718V195.718Z" fill="#EB996E"/>
<path d="M270.335 155.522C269.707 155.845 269.062 156.133 268.402 156.386C267.649 156.742 266.978 157.249 266.428 157.875C265.879 158.501 265.463 159.232 265.207 160.024C264.357 162.314 263.322 164.531 262.114 166.654C262.78 164.316 263.632 162.034 264.661 159.831C264.993 158.901 265.52 158.052 266.207 157.341C266.796 156.794 267.478 156.355 268.22 156.045C268.876 155.711 269.599 155.532 270.335 155.522V155.522Z" fill="#EB996E"/>
<path d="M270.176 159.399C269.991 159.424 269.815 159.49 269.659 159.592C269.504 159.695 269.373 159.831 269.277 159.99C268.948 160.627 268.527 161.628 268.14 162.697C267.713 164.05 267.212 165.378 266.639 166.676C266.641 165.225 266.963 163.793 267.583 162.481C267.951 161.524 268.419 160.609 268.982 159.752C269.085 159.609 269.217 159.49 269.37 159.404C269.524 159.318 269.694 159.266 269.869 159.251C270.085 159.251 270.187 159.365 270.176 159.399Z" fill="#EB996E"/>
<path d="M170.054 176.012L174.818 192.148L205.054 178.502C203.917 175.091 198.959 160.07 189.396 136.191C186.777 129.643 182.518 123.88 177.027 119.455C171.537 115.03 165 112.092 158.046 110.924C148.153 109.276 137.385 107.991 129.095 108.093C120.866 108.17 112.911 111.068 106.562 116.304C100.212 121.54 95.8517 128.797 94.2091 136.862C91.6506 149.54 96.1308 157.921 93.2426 185.666L92.3215 255.45L173.056 258.418L170.054 176.012Z" fill="#EE4248"/>
<path d="M96.9949 184.927C96.9949 184.927 85.7717 185.586 81.3597 177.092C81.3597 177.092 93.4471 132.404 97.6658 127.139L96.9949 184.927Z" fill="#EE4248"/>
<path d="M190.92 140.694C190.631 140.917 190.308 141.093 189.965 141.217C188.976 141.576 187.935 141.772 186.883 141.797C185.23 141.788 183.584 141.578 181.982 141.171C180.117 140.751 178.036 140.125 175.705 139.739C174.49 139.592 173.267 139.527 172.044 139.545C170.72 139.65 169.408 139.867 168.121 140.193C165.266 140.969 162.525 142.116 159.968 143.605C157.205 145.106 154.396 146.88 151.405 148.631C148.337 150.535 145.049 152.062 141.615 153.179C138.086 154.273 134.317 154.332 130.756 153.35C127.525 152.304 124.515 150.674 121.875 148.54C119.339 146.573 117.133 144.503 115.052 142.615C113.154 140.846 111.141 139.205 109.026 137.703C106.014 135.452 102.503 133.962 98.7916 133.359C97.4206 133.282 96.0463 133.282 94.6753 133.359C95.0106 133.223 95.3623 133.131 95.7214 133.086C96.7514 132.922 97.7963 132.873 98.8371 132.939C102.67 133.384 106.326 134.801 109.458 137.055C111.642 138.529 113.717 140.16 115.666 141.933C117.781 143.798 120.01 145.822 122.489 147.71C125.038 149.729 127.931 151.27 131.028 152.258C134.389 153.164 137.938 153.097 141.262 152.065C144.602 150.973 147.804 149.496 150.803 147.664C153.771 145.947 156.602 144.173 159.422 142.672C162.074 141.165 164.916 140.018 167.871 139.261C169.222 138.938 170.6 138.732 171.987 138.647C173.269 138.661 174.55 138.759 175.819 138.943C178.23 139.397 180.288 140.08 182.118 140.557C183.664 141.003 185.254 141.27 186.86 141.353C188.239 141.346 189.609 141.123 190.92 140.694V140.694Z" fill="#263238"/>
<path d="M170.588 196.378C169.047 195.459 167.345 194.842 165.574 194.558C163.644 194.33 161.69 194.438 159.797 194.877C157.637 195.309 155.306 196.093 152.747 196.73C148.357 197.859 143.76 197.921 139.341 196.912C135.929 196.116 134.099 195.036 134.155 194.922C134.212 194.808 136.191 195.525 139.511 196.059C143.817 196.792 148.228 196.618 152.463 195.548C154.953 194.922 157.33 194.16 159.592 193.762C161.609 193.355 163.685 193.331 165.71 193.694C167.081 193.938 168.384 194.473 169.531 195.263C170.327 195.889 170.645 196.332 170.588 196.378Z" fill="#263238"/>
<path d="M171.407 238.041C171.407 238.041 171.1 238.553 170.338 239.269C169.238 240.276 168.006 241.129 166.677 241.805C164.682 242.84 162.476 243.401 160.229 243.442C157.487 243.367 154.785 242.765 152.27 241.668C149.62 240.634 147.198 239.474 144.913 238.826C142.893 238.209 140.778 237.962 138.67 238.098C137.262 238.183 135.889 238.57 134.645 239.235C133.758 239.724 133.348 240.122 133.269 240.042C133.189 239.963 133.542 239.485 134.406 238.905C135.638 238.012 137.079 237.448 138.59 237.268C140.809 237.009 143.056 237.183 145.208 237.78C147.76 238.572 150.265 239.506 152.713 240.577C155.084 241.615 157.622 242.219 160.207 242.362C162.305 242.371 164.381 241.925 166.29 241.054C169.645 239.542 171.293 237.87 171.407 238.041Z" fill="#263238"/>
<g opacity="0.3">
<path opacity="0.3" d="M83.8501 185.712C94.4252 187.872 105.284 185.712 116.053 185.052C122.591 184.665 129.835 183.915 134.997 187.974C139.091 191.158 140.682 196.514 141.922 201.563C146.47 220.825 147.255 238.03 148.267 257.781L95.9602 256.644L83.8501 185.712Z" fill="black"/>
</g>
<path opacity="0.3" d="M97.6658 149.449L99.9287 182.061H93.0378L97.6658 149.449Z" fill="black"/>
<path d="M112.357 255.405L216.175 259.077C224.276 259.362 231.943 262.814 237.526 268.691C243.11 274.568 246.165 282.401 246.035 290.507L245.125 349.42H207.055L204.599 298.626L112.357 296.192V255.405Z" fill="#263238"/>
<path d="M147.175 309.269H136.964V346.646H147.175V309.269Z" fill="#455A64"/>
<path d="M51.2834 190.522V280.58C51.2865 286.251 53.5413 291.688 57.5521 295.697C61.563 299.706 67.0016 301.958 72.6723 301.958H132.643V190.522C132.64 187.993 131.634 185.57 129.845 183.783C128.056 181.996 125.631 180.993 123.103 180.993H60.8124C58.2851 180.993 55.8614 181.997 54.0744 183.784C52.2874 185.571 51.2834 187.994 51.2834 190.522V190.522Z" fill="#455A64"/>
<path d="M213.355 309.269H67.3052C67.3232 305.059 69.0084 301.027 71.9919 298.057C74.9754 295.086 79.0143 293.418 83.2246 293.418H197.56C201.764 293.418 205.796 295.088 208.769 298.061C211.741 301.033 213.411 305.065 213.411 309.269H213.355Z" fill="#455A64"/>
<path d="M132.643 291.314C132.709 292.204 132.633 293.098 132.416 293.964C131.926 295.991 130.859 297.833 129.343 299.266C127.827 300.7 125.928 301.662 123.876 302.037C122.948 302.188 122.008 302.253 121.067 302.23H118.122H105H81.121L73.9004 302.14H71.9332C71.7038 302.147 71.4744 302.124 71.251 302.071C71.4766 302.035 71.7047 302.016 71.9332 302.014L73.9004 301.958L81.121 301.855L105 301.742H121.067C121.98 301.777 122.894 301.723 123.796 301.582C125.393 301.307 126.901 300.656 128.197 299.683C130.12 298.262 131.51 296.236 132.143 293.93C132.62 292.269 132.564 291.303 132.643 291.314Z" fill="#263238"/>
<path d="M151.019 309.576C148.046 309.876 145.056 309.975 142.07 309.872C139.08 309.975 136.086 309.876 133.109 309.576C136.087 309.283 139.08 309.184 142.07 309.281C145.056 309.185 148.045 309.283 151.019 309.576V309.576Z" fill="#263238"/>
<path d="M195.457 302.754C195.316 302.388 195.224 302.006 195.184 301.616C195.036 300.877 194.843 299.808 194.615 298.421C194.149 295.635 193.478 291.599 192.75 286.641C192.341 284.162 192.011 281.399 191.465 278.522C191.318 277.805 191.181 277.078 191.033 276.327C190.886 275.577 190.601 274.872 190.385 274.121C190.272 273.757 190.169 273.371 190.055 272.984C189.942 272.598 189.771 272.245 189.623 271.847C189.316 271.097 189.043 270.335 188.714 269.573C187.27 266.459 185.444 263.537 183.278 260.874C180.913 258.045 178.161 255.565 175.103 253.506C172.058 251.422 168.715 249.812 165.187 248.73C161.913 247.691 158.511 247.109 155.078 247.001C148.46 246.854 142.434 246.888 137.408 246.819C132.382 246.751 128.311 246.694 125.491 246.626C124.081 246.626 122.989 246.558 122.239 246.512C121.856 246.524 121.474 246.486 121.102 246.399C121.473 246.303 121.856 246.261 122.239 246.274L125.491 246.16C128.299 246.092 132.382 246.035 137.408 245.978C142.434 245.921 148.426 245.819 155.112 245.91C158.652 245.985 162.163 246.563 165.54 247.627C169.185 248.718 172.638 250.371 175.773 252.528C178.932 254.642 181.767 257.204 184.188 260.135C186.404 262.889 188.265 265.911 189.726 269.129C190.055 269.903 190.328 270.699 190.635 271.46C190.772 271.847 190.92 272.222 191.067 272.598C191.215 272.973 191.284 273.371 191.397 273.735C191.613 274.508 191.818 275.258 192.023 276.009C192.227 276.759 192.307 277.521 192.443 278.283C192.955 281.228 193.228 283.969 193.58 286.447C194.229 291.439 194.718 295.487 195.07 298.285C195.229 299.683 195.354 300.775 195.423 301.514C195.496 301.923 195.508 302.341 195.457 302.754V302.754Z" fill="#455A64"/>
<path d="M11.155 193.774C11.155 193.774 9.31293 198.925 12.838 202.654H20.1723C20.1723 202.654 19.5241 194.331 11.155 193.774Z" fill="#EE4248"/>
<path opacity="0.4" d="M11.155 193.774C11.155 193.774 9.31293 198.925 12.838 202.654H20.1723C20.1723 202.654 19.5241 194.331 11.155 193.774Z" fill="black"/>
<path d="M23.6517 183.164C23.3447 182.801 17.0679 192.625 20.5929 202.654H27.5065C27.5065 202.654 30.2128 190.988 23.6517 183.164Z" fill="#EE4248"/>
<path d="M35.8983 193.774C33.6383 193.925 31.5187 194.924 29.963 196.57C28.4073 198.217 27.53 200.389 27.5065 202.654H34.4087C34.4087 202.654 37.4334 198.402 35.8983 193.774Z" fill="#EE4248"/>
<path d="M12.2694 202.268C9.88495 203.979 8.03561 206.333 6.9365 209.055C5.83739 211.776 5.53371 214.754 6.06078 217.641C7.83466 227.875 18.6371 232.287 18.6371 232.287H30.6108C30.6108 232.287 42.8006 226.909 42.5049 215.845C42.2093 204.781 34.9546 202.427 34.9546 202.427L12.2694 202.268Z" fill="#455A64"/>
<path d="M42.4594 214.605C42.1883 214.149 41.8554 213.731 41.4701 213.366C40.9133 212.921 40.2738 212.592 39.5886 212.397C38.9034 212.202 38.1863 212.144 37.4789 212.229C35.3612 212.63 33.3603 213.5 31.6228 214.776C30.5192 215.482 29.3502 216.079 28.1319 216.561C26.7878 217.073 25.3319 217.218 23.9133 216.982C20.9909 216.482 18.6598 214.912 16.4766 213.866C14.6189 212.782 12.4837 212.268 10.3363 212.388C8.90061 212.537 7.57142 213.213 6.60656 214.287C6.28414 214.71 6.00956 215.168 5.78784 215.651C5.79544 215.508 5.82221 215.367 5.86744 215.231C5.98528 214.822 6.17386 214.437 6.42462 214.094C7.3781 212.898 8.76164 212.122 10.2794 211.933C12.5371 211.735 14.8008 212.239 16.7609 213.377C19.0351 214.423 21.3093 215.936 24.0497 216.391C25.3712 216.618 26.7293 216.488 27.9841 216.015C29.173 215.552 30.3153 214.977 31.3954 214.298C33.2088 213.011 35.2943 212.159 37.4903 211.808C38.2477 211.734 39.0123 211.819 39.7349 212.058C40.4575 212.297 41.1222 212.684 41.6862 213.195C41.9796 213.484 42.2184 213.823 42.3912 214.196C42.448 214.457 42.4821 214.594 42.4594 214.605Z" fill="#263238"/>
<path d="M42.63 217.278C42.3572 216.829 42.0286 216.416 41.6521 216.049C41.1037 215.602 40.4703 215.271 39.7901 215.075C39.1099 214.88 38.3971 214.824 37.6949 214.912C35.6006 215.315 33.623 216.182 31.9071 217.448C30.8321 218.158 29.6894 218.76 28.4958 219.245C27.1639 219.758 25.7186 219.903 24.3112 219.665C21.4116 219.165 19.1033 217.596 16.9428 216.55C15.1137 215.467 13.0042 214.953 10.8821 215.072C9.45569 215.227 8.13833 215.908 7.18648 216.982C6.86894 217.4 6.60177 217.854 6.3905 218.335C6.3905 218.335 6.3905 218.187 6.45873 217.914C6.58175 217.527 6.76602 217.163 7.00454 216.834C7.94272 215.641 9.30954 214.862 10.8138 214.662C13.0335 214.461 15.2613 214.949 17.193 216.061C19.399 217.107 21.7414 218.619 24.4022 219.074C25.7087 219.301 27.0522 219.172 28.2911 218.699C29.4625 218.237 30.586 217.662 31.6455 216.982C33.4376 215.694 35.5049 214.842 37.6836 214.492C38.4249 214.425 39.1719 214.514 39.8768 214.753C40.5818 214.992 41.229 215.375 41.7771 215.879C42.0654 216.165 42.3003 216.5 42.4708 216.868C42.5461 216.995 42.5999 217.133 42.63 217.278Z" fill="#263238"/>
<path d="M11.553 217.209C11.553 217.141 11.8714 216.936 12.2921 217.277C12.4192 217.387 12.5101 217.533 12.5527 217.695C12.5954 217.858 12.5877 218.029 12.5309 218.187C12.4609 218.382 12.3297 218.548 12.1569 218.662C11.9842 218.776 11.7792 218.83 11.5728 218.817C11.3665 218.804 11.1698 218.725 11.0124 218.591C10.8551 218.457 10.7455 218.275 10.7001 218.073C10.6602 217.918 10.6634 217.754 10.7095 217.599C10.7555 217.445 10.8427 217.306 10.9617 217.198C11.371 216.857 11.7235 217.016 11.7008 217.084C11.678 217.152 11.4506 217.209 11.2801 217.482C11.2432 217.55 11.224 217.626 11.224 217.704C11.224 217.781 11.2432 217.858 11.2801 217.926C11.3134 218.005 11.3663 218.075 11.4339 218.129C11.5015 218.183 11.5816 218.218 11.6667 218.233C11.7507 218.23 11.8324 218.205 11.9041 218.161C11.9758 218.117 12.035 218.056 12.076 217.982C12.1141 217.919 12.1342 217.846 12.1342 217.772C12.1342 217.698 12.1141 217.625 12.076 217.562C11.8259 217.3 11.5643 217.289 11.553 217.209Z" fill="#263238"/>
<path d="M25.1187 212.888C25.1187 212.82 25.4371 212.604 25.8692 212.957C25.9918 213.069 26.0787 213.216 26.1191 213.377C26.1595 213.539 26.1517 213.709 26.0966 213.866C26.0248 214.06 25.8938 214.225 25.7223 214.34C25.5507 214.454 25.3474 214.511 25.1414 214.503C24.9359 214.484 24.7414 214.401 24.5847 214.267C24.4279 214.132 24.3165 213.953 24.2659 213.753C24.2246 213.596 24.2283 213.43 24.2766 213.276C24.3248 213.121 24.4157 212.983 24.5388 212.877C24.9481 212.536 25.3006 212.695 25.2665 212.763C25.2324 212.831 25.0163 212.888 24.8458 213.161C24.8117 213.23 24.794 213.306 24.794 213.383C24.794 213.46 24.8117 213.536 24.8458 213.605C24.8791 213.684 24.932 213.754 24.9996 213.808C25.0672 213.862 25.1473 213.897 25.2324 213.912C25.3166 213.91 25.3989 213.886 25.4708 213.842C25.5427 213.798 25.6016 213.736 25.6417 213.662C25.681 213.598 25.7019 213.526 25.7019 213.451C25.7019 213.377 25.681 213.304 25.6417 213.241C25.3916 212.979 25.13 212.968 25.1187 212.888Z" fill="#263238"/>
<path d="M38.2749 217.403C38.2749 217.334 38.5933 217.13 39.0254 217.471C39.148 217.584 39.2349 217.73 39.2753 217.892C39.3157 218.053 39.3079 218.223 39.2528 218.381C39.181 218.574 39.05 218.739 38.8785 218.854C38.7069 218.968 38.5036 219.025 38.2976 219.017C38.0936 218.999 37.9002 218.918 37.7436 218.785C37.587 218.653 37.4748 218.476 37.4221 218.278C37.3812 218.12 37.3851 217.953 37.4333 217.796C37.4814 217.64 37.572 217.499 37.695 217.391C38.1043 217.05 38.4568 217.209 38.4227 217.278C38.3886 217.346 38.1725 217.414 38.002 217.676C37.9541 217.743 37.9246 217.821 37.9162 217.904C37.9078 217.986 37.9208 218.069 37.9541 218.144C37.9873 218.22 38.0395 218.286 38.1057 218.335C38.1719 218.384 38.2498 218.416 38.3317 218.426C38.416 218.424 38.4982 218.4 38.5701 218.356C38.642 218.312 38.701 218.25 38.7411 218.176C38.7804 218.113 38.8012 218.04 38.8012 217.965C38.8012 217.891 38.7804 217.818 38.7411 217.755C38.5478 217.505 38.2976 217.482 38.2749 217.403Z" fill="#263238"/>
<path d="M384.409 191.829L388.309 232.287H408.026L412.745 191.829H384.409Z" fill="#455A64"/>
<path d="M384.409 186.599C383.195 188.114 382.541 190.001 382.555 191.943H414.599C414.755 190.968 414.667 189.97 414.344 189.038C414.02 188.105 413.471 187.267 412.745 186.599H384.409Z" fill="#263238"/>
<path d="M388.059 182.892L386.979 186.894L411.165 187.076L409.562 182.846L388.059 182.892Z" fill="#263238"/>
<path d="M384.045 201.961C384.045 202.336 386.319 222.36 386.319 222.36H410.414L412.689 201.995L384.045 201.961Z" fill="#EE4248"/>
</svg>
