<svg width="515" height="479" viewBox="0 0 515 479" fill="none" xmlns="http://www.w3.org/2000/svg">
<path d="M325.289 414.021L184.803 413.36C180.785 413.344 176.81 412.537 173.104 410.984C169.398 409.431 166.035 407.164 163.206 404.311C160.377 401.458 158.137 398.076 156.616 394.357C155.094 390.638 154.32 386.656 154.338 382.639L155.836 30.438C155.883 22.3282 159.145 14.5683 164.907 8.86159C170.67 3.15492 178.461 -0.0320717 186.571 0.00024337L327.057 0.648147C335.172 0.687439 342.938 3.94677 348.651 9.70989C354.363 15.473 357.554 23.2684 357.522 31.3829L356.037 383.543C355.998 391.661 352.737 399.431 346.971 405.146C341.206 410.861 333.407 414.054 325.289 414.021Z" fill="#263238"/>
<path d="M326.855 12.7693L299.616 12.6478C298.727 12.6619 297.85 12.8513 297.035 13.2052C296.22 13.5591 295.483 14.0705 294.865 14.7102C294.248 15.3498 293.764 16.105 293.439 16.9324C293.115 17.7598 292.957 18.6432 292.975 19.5317V24.472C292.993 25.3605 292.835 26.2439 292.511 27.0713C292.186 27.8987 291.702 28.6539 291.085 29.2935C290.468 29.9332 289.73 30.4446 288.915 30.7985C288.1 31.1525 287.223 31.3419 286.334 31.3559L233.206 31.1129C232.317 31.092 231.44 30.8952 230.626 30.5339C229.813 30.1727 229.079 29.6541 228.466 29.0079C227.854 28.3618 227.376 27.601 227.059 26.7692C226.742 25.9375 226.592 25.0512 226.619 24.1615V19.2213C226.646 18.3316 226.497 17.4453 226.18 16.6136C225.863 15.7818 225.385 15.021 224.772 14.3749C224.16 13.7288 223.426 13.2101 222.613 12.8489C221.799 12.4876 220.922 12.2908 220.032 12.2699H210.449L186.652 12.1484C183.837 12.136 181.048 12.6781 178.442 13.7438C175.837 14.8095 173.467 16.378 171.468 18.3596C169.469 20.3412 167.879 22.6972 166.791 25.293C165.702 27.8889 165.135 30.6737 165.123 33.4886L163.665 377.253C163.644 382.937 165.879 388.397 169.88 392.433C173.882 396.47 179.322 398.754 185.005 398.782L325.208 399.43C328.023 399.443 330.813 398.9 333.418 397.835C336.023 396.769 338.393 395.201 340.392 393.219C342.392 391.237 343.981 388.881 345.069 386.285C346.158 383.69 346.725 380.905 346.737 378.09L348.195 34.3254C348.209 31.5088 347.668 28.717 346.604 26.1093C345.539 23.5017 343.971 21.1293 341.989 19.1276C340.008 17.1259 337.651 15.5341 335.054 14.4432C332.458 13.3522 329.671 12.7834 326.855 12.7693Z" fill="white"/>
<path d="M249.795 356.021C249.795 356.603 249.623 357.172 249.299 357.656C248.976 358.14 248.516 358.517 247.979 358.739C247.441 358.962 246.849 359.02 246.279 358.907C245.708 358.793 245.183 358.513 244.772 358.102C244.36 357.69 244.08 357.166 243.967 356.595C243.853 356.024 243.911 355.432 244.134 354.895C244.357 354.357 244.734 353.898 245.218 353.574C245.702 353.251 246.271 353.078 246.853 353.078C247.632 353.082 248.378 353.393 248.929 353.944C249.48 354.495 249.792 355.242 249.795 356.021V356.021Z" fill="#455A64"/>
<path d="M260.971 356.021C260.971 356.603 260.799 357.172 260.475 357.656C260.152 358.14 259.692 358.517 259.155 358.739C258.617 358.962 258.025 359.02 257.455 358.907C256.884 358.793 256.36 358.513 255.948 358.102C255.537 357.69 255.256 357.166 255.143 356.595C255.029 356.024 255.087 355.432 255.31 354.895C255.533 354.357 255.91 353.898 256.394 353.574C256.878 353.251 257.447 353.078 258.029 353.078C258.808 353.082 259.554 353.393 260.105 353.944C260.657 354.495 260.968 355.242 260.971 356.021V356.021Z" fill="#455A64"/>
<path d="M272.148 356.021C272.148 356.603 271.975 357.172 271.652 357.656C271.328 358.14 270.869 358.517 270.331 358.739C269.794 358.962 269.202 359.02 268.631 358.907C268.06 358.793 267.536 358.513 267.124 358.102C266.713 357.69 266.433 357.166 266.319 356.595C266.206 356.024 266.264 355.432 266.487 354.895C266.709 354.357 267.086 353.898 267.57 353.574C268.054 353.251 268.623 353.078 269.205 353.078C269.984 353.082 270.731 353.393 271.282 353.944C271.833 354.495 272.144 355.242 272.148 356.021V356.021Z" fill="#455A64"/>
<path d="M191.241 108.672C191.241 108.672 191.241 108.429 191.241 107.929C191.344 105.971 192.036 104.089 193.225 102.53C194.211 101.188 195.514 100.112 197.018 99.3988C198.937 98.546 201.042 98.1975 203.133 98.3865H228.671L336.654 98.6024H337.45L336.897 99.1828L323.062 113.734L323.156 113.504V137.598C323.253 139.204 323.135 140.815 322.805 142.39C322.391 143.967 321.609 145.424 320.524 146.641C319.46 147.856 318.13 148.808 316.637 149.422C315.151 150.006 313.561 150.277 311.966 150.218H267.909L208.91 150.097H202.701C200.714 150.249 198.721 149.891 196.91 149.058C195.264 148.262 193.858 147.045 192.833 145.53C191.809 144.015 191.204 142.257 191.079 140.432C191.079 133.683 191.079 128.001 191.079 123.29C191.079 118.579 191.079 114.962 191.147 112.492C191.147 111.263 191.147 110.332 191.147 109.671C191.147 109.009 191.147 108.712 191.147 108.712C191.147 108.712 191.147 109.036 191.147 109.671C191.147 110.305 191.147 111.263 191.147 112.492C191.147 114.989 191.147 118.633 191.147 123.29C191.147 127.947 191.147 133.751 191.241 140.405C191.371 142.156 191.961 143.84 192.952 145.289C193.943 146.737 195.299 147.898 196.883 148.653C198.631 149.452 200.556 149.786 202.471 149.624H208.91L267.977 149.557H302.855H312.007C313.509 149.619 315.008 149.366 316.407 148.815C317.803 148.239 319.05 147.353 320.052 146.223C321.058 145.086 321.78 143.726 322.157 142.255C322.476 140.738 322.589 139.185 322.495 137.638V113.383L322.589 113.288L336.438 98.7374L336.695 99.3178L228.711 98.8589L210.57 98.7644H203.16C201.116 98.5632 199.054 98.8836 197.167 99.6958C195.686 100.379 194.397 101.418 193.414 102.719C192.687 103.669 192.129 104.738 191.768 105.878C191.506 106.791 191.33 107.726 191.241 108.672V108.672Z" fill="#455A64"/>
<path d="M306.392 117.311L205.468 116.838L205.481 113.734L306.392 114.206V117.311Z" fill="#455A64"/>
<path d="M306.392 127.515L205.468 127.042L205.481 123.938L306.392 124.41V127.515Z" fill="#455A64"/>
<path d="M266.452 134.151L266.437 137.256L306.363 137.451L306.378 134.346L266.452 134.151Z" fill="#455A64"/>
<path d="M328.448 177.025V208.07C328.448 210.764 327.379 213.347 325.475 215.253C323.572 217.158 320.99 218.231 318.297 218.234H207.074C204.379 218.234 201.794 217.163 199.887 215.257C197.981 213.351 196.911 210.766 196.911 208.07V181.844L183.075 167.293L318.243 166.875C319.581 166.868 320.906 167.125 322.144 167.632C323.382 168.139 324.507 168.885 325.456 169.829C326.404 170.772 327.156 171.893 327.67 173.128C328.183 174.363 328.448 175.688 328.448 177.025V177.025Z" fill="#EE4248"/>
<path d="M213.31 185.664L314.234 185.191L314.22 182.087L213.297 182.559L213.31 185.664Z" fill="white"/>
<path d="M213.31 195.868L314.234 195.396L314.22 192.305L213.297 192.764L213.31 195.868Z" fill="white"/>
<path d="M253.202 202.523L213.276 202.718L213.291 205.823L253.218 205.628L253.202 202.523Z" fill="white"/>
<path d="M267.909 58.2032C268.888 57.7763 269.718 57.0689 270.295 56.1703C270.871 55.2718 271.169 54.2225 271.149 53.155C271.185 52.462 271.079 51.769 270.838 51.1181C270.598 50.4673 270.227 49.8722 269.749 49.3691C269.271 48.8659 268.696 48.4653 268.058 48.1916C267.421 47.9178 266.734 47.7766 266.04 47.7766C265.346 47.7766 264.659 47.9178 264.022 48.1916C263.384 48.4653 262.809 48.8659 262.331 49.3691C261.853 49.8722 261.482 50.4673 261.242 51.1181C261.001 51.769 260.895 52.462 260.931 53.155C260.904 54.2308 261.2 55.29 261.779 56.1968C262.359 57.1035 263.196 57.8163 264.184 58.2437C256.315 59.4315 256.666 67.9892 256.666 67.9892L275.279 68.0702C275.279 68.0702 275.711 59.391 267.909 58.2032Z" fill="#EE4248"/>
<path opacity="0.5" d="M267.909 58.2032C268.888 57.7763 269.718 57.0689 270.295 56.1703C270.871 55.2718 271.169 54.2225 271.149 53.155C271.185 52.462 271.079 51.769 270.838 51.1181C270.598 50.4673 270.227 49.8722 269.749 49.3691C269.271 48.8659 268.696 48.4653 268.058 48.1916C267.421 47.9178 266.734 47.7766 266.04 47.7766C265.346 47.7766 264.659 47.9178 264.022 48.1916C263.384 48.4653 262.809 48.8659 262.331 49.3691C261.853 49.8722 261.482 50.4673 261.242 51.1181C261.001 51.769 260.895 52.462 260.931 53.155C260.904 54.2308 261.2 55.29 261.779 56.1968C262.359 57.1035 263.196 57.8163 264.184 58.2437C256.315 59.4315 256.666 67.9892 256.666 67.9892L275.279 68.0702C275.279 68.0702 275.711 59.391 267.909 58.2032Z" fill="white"/>
<path d="M257.691 58.2032C258.666 57.7697 259.493 57.0611 260.071 56.1644C260.649 55.2676 260.952 54.2218 260.944 53.155C260.996 52.4519 260.901 51.7459 260.667 51.0809C260.433 50.416 260.065 49.8064 259.585 49.2902C259.105 48.774 258.523 48.3623 257.877 48.0807C257.231 47.7992 256.534 47.6539 255.829 47.6539C255.124 47.6539 254.426 47.7992 253.78 48.0807C253.134 48.3623 252.553 48.774 252.073 49.2902C251.593 49.8064 251.224 50.416 250.99 51.0809C250.756 51.7459 250.662 52.4519 250.713 53.155C250.686 54.2308 250.982 55.29 251.561 56.1967C252.141 57.1035 252.978 57.8163 253.966 58.2437C246.097 59.4315 246.448 67.9892 246.448 67.9892L265.061 68.0702C265.061 68.0702 265.493 59.391 257.691 58.2032Z" fill="#EE4248"/>
<path d="M286.154 71.8509L236.118 71.6238L236.09 77.8328L286.126 78.0599L286.154 71.8509Z" fill="#EE4248"/>
<path opacity="0.3" d="M286.154 71.8509L236.118 71.6238L236.09 77.8328L286.126 78.0599L286.154 71.8509Z" fill="white"/>
<path d="M193.576 247.714C193.552 247.471 193.552 247.227 193.576 246.985C193.658 246.256 193.892 245.552 194.265 244.92C194.883 243.872 195.833 243.06 196.964 242.612C198.528 242.185 200.156 242.043 201.77 242.193H232.72L336.938 242.409H337.734L337.14 242.963L323.507 257.594L323.602 257.351V267.137C323.602 267.866 323.602 268.487 323.602 269.297C323.546 270.435 323.151 271.53 322.468 272.442C321.785 273.353 320.845 274.04 319.768 274.413C319.06 274.653 318.315 274.762 317.568 274.737H303.031H271.567L218.359 274.629H200.15C199.369 274.671 198.586 274.626 197.815 274.494C196.728 274.257 195.736 273.702 194.967 272.899C194.197 272.096 193.685 271.081 193.495 269.985C193.416 269.318 193.389 268.646 193.414 267.974C193.414 265.396 193.414 263.047 193.414 260.928C193.414 256.703 193.414 253.423 193.482 251.156C193.482 250.062 193.482 249.226 193.482 248.618C193.482 248.011 193.482 247.754 193.482 247.754C193.482 247.754 193.482 248.051 193.482 248.618C193.482 249.185 193.482 250.062 193.482 251.156C193.482 253.423 193.482 256.703 193.549 260.928C193.549 263.047 193.549 265.396 193.549 267.974C193.527 268.624 193.558 269.274 193.644 269.918C193.821 270.942 194.302 271.89 195.024 272.638C195.746 273.387 196.676 273.901 197.693 274.116C198.439 274.228 199.194 274.264 199.947 274.224H207.56H218.359L271.621 274.143H317.609C318.273 274.167 318.936 274.071 319.566 273.859C320.831 273.415 321.87 272.488 322.454 271.281C322.743 270.681 322.908 270.029 322.94 269.364C322.94 268.69 322.94 267.947 322.94 267.245V257.324L323.035 257.23L336.695 242.625L336.938 243.205L232.734 242.76L201.783 242.558C200.2 242.383 198.599 242.502 197.059 242.909C196.185 243.254 195.416 243.822 194.829 244.556C194.242 245.29 193.857 246.164 193.711 247.093C193.677 247.302 193.632 247.509 193.576 247.714V247.714Z" fill="#455A64"/>
<path d="M310.914 255.893L209.99 255.435L210.003 252.33L310.927 252.802L310.914 255.893Z" fill="#455A64"/>
<path d="M269.98 262.574L269.964 265.679L310.917 265.879L310.932 262.774L269.98 262.574Z" fill="#455A64"/>
<path d="M324.897 303.082V324.341C324.897 325.773 324.328 327.147 323.316 328.159C322.303 329.172 320.93 329.74 319.498 329.74H200.636C199.204 329.74 197.83 329.172 196.818 328.159C195.805 327.147 195.236 325.773 195.236 324.341V312.72L181.59 298.115L319.498 297.683C320.93 297.683 322.303 298.252 323.316 299.264C324.328 300.277 324.897 301.65 324.897 303.082Z" fill="#EE4248"/>
<path d="M207.574 311.262L308.498 310.803L308.484 307.698L207.56 308.171L207.574 311.262Z" fill="white"/>
<path d="M207.574 321.25L308.498 320.778L308.484 317.687L207.56 318.146L207.574 321.25Z" fill="white"/>
<path d="M487.574 48.2283C496.319 48.2283 503.407 41.1396 503.407 32.3953C503.407 23.6509 496.319 16.5622 487.574 16.5622C478.83 16.5622 471.741 23.6509 471.741 32.3953C471.741 41.1396 478.83 48.2283 487.574 48.2283Z" fill="#EE4248"/>
<path opacity="0.5" d="M487.574 48.2283C496.319 48.2283 503.407 41.1396 503.407 32.3953C503.407 23.6509 496.319 16.5622 487.574 16.5622C478.83 16.5622 471.741 23.6509 471.741 32.3953C471.741 41.1396 478.83 48.2283 487.574 48.2283Z" fill="white"/>
<path d="M482.324 27.8599C482.917 27.8599 483.457 28.4943 483.511 29.3582C483.565 30.2221 483.12 30.9645 482.513 30.9915C481.905 31.0184 481.379 30.357 481.325 29.4932C481.271 28.6293 481.716 27.8869 482.324 27.8599Z" fill="#263238"/>
<path d="M483.795 23.8781C483.795 24.1075 482.445 24.04 481.095 24.553C479.745 25.0659 478.652 25.9028 478.49 25.7408C478.328 25.5788 479.151 24.391 480.825 23.7971C482.499 23.2032 483.862 23.6756 483.795 23.8781Z" fill="#263238"/>
<path d="M495.268 30.3301C495.092 30.465 494.242 29.5472 492.879 29.4122C491.515 29.2772 490.49 29.9656 490.355 29.8036C490.22 29.6417 490.463 29.4122 490.908 29.1018C491.524 28.7155 492.25 28.5445 492.973 28.6158C493.694 28.6942 494.366 29.0183 494.876 29.5337C495.254 29.9386 495.349 30.2626 495.268 30.3301Z" fill="#263238"/>
<path d="M496.631 27.6845C496.51 27.8734 495.281 27.212 493.513 27.1581C491.745 27.1041 490.463 27.644 490.355 27.428C490.762 27.0087 491.264 26.6931 491.818 26.5075C492.372 26.322 492.963 26.272 493.54 26.3617C495.511 26.4292 496.766 27.536 496.631 27.6845Z" fill="#263238"/>
<path d="M495.511 32.0848C495.519 33.1791 495.168 34.2458 494.512 35.1218C493.822 36.2764 492.853 37.239 491.694 37.9208C490.534 38.6027 489.222 38.9819 487.878 39.0236C486.533 39.0652 485.2 38.768 484.001 38.1593C482.801 37.5506 481.774 36.6499 481.014 35.5402C480.296 34.7132 479.881 33.6655 479.84 32.5707C480.304 33.5138 480.846 34.4168 481.46 35.2703C482.212 36.2332 483.181 37.0053 484.287 37.5238C485.394 38.0422 486.607 38.2926 487.829 38.2544C489.05 38.2163 490.245 37.8908 491.317 37.3043C492.39 36.7178 493.308 35.8868 493.999 34.8788C494.568 33.984 495.073 33.0503 495.511 32.0848V32.0848Z" fill="#263238"/>
<path d="M44.5326 312.463C44.3971 316.865 42.9597 321.128 40.4019 324.713C37.8442 328.298 34.2809 331.045 30.1626 332.605C26.0442 334.165 21.5557 334.47 17.2645 333.48C12.9732 332.49 9.07178 330.249 6.05342 327.042C3.03506 323.835 1.03525 319.806 0.306795 315.462C-0.421661 311.119 0.15394 306.657 1.96083 302.641C3.76772 298.624 6.72478 295.234 10.4582 292.898C14.1917 290.562 18.5339 289.385 22.9359 289.517C25.8611 289.604 28.7403 290.267 31.4092 291.468C34.078 292.668 36.484 294.383 38.4897 296.514C40.4954 298.645 42.0614 301.151 43.0983 303.887C44.1352 306.624 44.6225 309.538 44.5326 312.463V312.463Z" fill="#EE4248"/>
<path opacity="0.5" d="M44.5326 312.463C44.3971 316.865 42.9597 321.128 40.4019 324.713C37.8442 328.298 34.2809 331.045 30.1626 332.605C26.0442 334.165 21.5557 334.47 17.2645 333.48C12.9732 332.49 9.07178 330.249 6.05342 327.042C3.03506 323.835 1.03525 319.806 0.306795 315.462C-0.421661 311.119 0.15394 306.657 1.96083 302.641C3.76772 298.624 6.72478 295.234 10.4582 292.898C14.1917 290.562 18.5339 289.385 22.9359 289.517C25.8611 289.604 28.7403 290.267 31.4092 291.468C34.078 292.668 36.484 294.383 38.4897 296.514C40.4954 298.645 42.0614 301.151 43.0983 303.887C44.1352 306.624 44.6225 309.538 44.5326 312.463V312.463Z" fill="white"/>
<path d="M17.8876 305.66C17.4938 305.147 16.9152 304.807 16.2748 304.714C15.6345 304.621 14.9831 304.781 14.4591 305.161C13.9522 305.503 13.5247 305.95 13.2056 306.471C12.8866 306.993 12.6834 307.577 12.6099 308.184C12.5533 307.566 12.365 306.966 12.0577 306.426C11.7504 305.886 11.3312 305.418 10.8282 305.053C10.3224 304.647 9.68012 304.452 9.03433 304.507C8.38853 304.563 7.78875 304.864 7.35924 305.35C6.88778 306.031 6.68578 306.863 6.79233 307.685C6.83777 308.509 7.10347 309.306 7.56171 309.993C8.93246 311.708 10.6128 313.15 12.5154 314.245C14.3911 313.253 16.0554 311.905 17.4152 310.276C17.9113 309.619 18.2234 308.841 18.3195 308.022C18.4766 307.209 18.3225 306.366 17.8876 305.66V305.66Z" fill="#EE4248"/>
<path d="M37.4869 306.214C37.0932 305.699 36.5133 305.36 35.872 305.269C35.2308 305.178 34.5795 305.343 34.0584 305.728C33.5477 306.066 33.1174 306.512 32.7979 307.034C32.4783 307.556 32.2774 308.143 32.2092 308.751C32.1525 308.132 31.9642 307.533 31.6569 306.993C31.3497 306.453 30.9305 305.985 30.4275 305.62C29.923 305.211 29.2799 305.014 28.6332 305.069C27.9864 305.125 27.3862 305.428 26.9585 305.917C26.4846 306.597 26.2824 307.43 26.3916 308.252C26.4303 309.077 26.6966 309.876 27.161 310.56C28.5317 312.275 30.212 313.717 32.1147 314.812C33.9846 313.811 35.6474 312.465 37.0144 310.843C37.5111 310.181 37.8231 309.398 37.9188 308.576C38.0732 307.762 37.9193 306.92 37.4869 306.214V306.214Z" fill="#EE4248"/>
<path d="M29.4957 317.268C29.2765 319.111 28.3677 320.802 26.9523 322.002C25.5368 323.202 23.7196 323.821 21.866 323.736C20.0124 323.65 18.26 322.866 16.9609 321.541C15.6619 320.216 14.9128 318.448 14.864 316.593L29.4957 317.268Z" fill="white"/>
<path d="M439.184 454.772L436.485 440.518L410.906 445.053L414.618 466.42L416.224 466.245C423.365 465.394 452.345 460.967 456.799 458.632C461.834 456.027 439.184 454.772 439.184 454.772Z" fill="#EE4248"/>
<path d="M457.271 457.215C457.271 457.458 447.823 459.415 435.999 461.588C424.174 463.761 414.618 465.327 414.577 465.084C414.537 464.841 424.026 462.897 435.837 460.724C447.647 458.551 457.19 456.985 457.271 457.215Z" fill="#263238"/>
<path d="M440.17 457.579C439.94 457.498 439.981 456.715 440.399 455.878C440.817 455.041 441.398 454.528 441.6 454.65C441.803 454.771 441.6 455.473 441.182 456.256C440.763 457.039 440.399 457.673 440.17 457.579Z" fill="#263238"/>
<path d="M441.978 458.24C441.735 458.24 441.695 457.336 441.978 456.351C442.262 455.365 442.882 454.717 443.098 454.825C443.314 454.933 443.098 455.73 442.815 456.634C442.532 457.539 442.221 458.281 441.978 458.24Z" fill="#263238"/>
<path d="M422.177 463.572C422.082 463.667 421.637 463.356 420.962 462.83C420.126 462.133 419.221 461.523 418.262 461.008C417.393 460.531 416.419 460.281 415.428 460.279C414.631 460.279 414.146 460.535 414.078 460.414C414.011 460.292 414.429 459.887 415.347 459.658C416.534 459.421 417.766 459.608 418.829 460.184C419.855 460.736 420.771 461.473 421.529 462.357C422.015 462.978 422.298 463.491 422.177 463.572Z" fill="#263238"/>
<path d="M439.724 454.879C439.886 455.055 439.535 455.635 438.86 456.04C438.185 456.445 437.51 456.472 437.429 456.243C437.348 456.013 437.821 455.635 438.415 455.271C439.009 454.906 439.589 454.718 439.724 454.879Z" fill="#263238"/>
<path d="M439.103 453.597C439.103 453.84 438.523 454.164 437.659 454.34C436.795 454.515 436.08 454.447 436.053 454.205C436.026 453.962 436.673 453.638 437.483 453.476C438.293 453.314 439.036 453.368 439.103 453.597Z" fill="#263238"/>
<path d="M469.959 304.067C462.036 288.072 419.572 226.198 419.572 226.198L396.909 228.574V228.439L371.546 231.219L357.562 232.758L408.193 453.894L443.207 453.26L434.784 412.348C440.575 397.837 474.346 312.922 469.959 304.067ZM433.839 313.61L421.327 347.207L407.154 278.367L433.839 313.61Z" fill="#263238"/>
<path d="M405.75 124.059C405.426 121.751 406.668 112.154 406.668 112.154C406.668 112.154 415.482 111.506 416.305 102.814C417.129 94.1211 417.223 73.9957 417.223 73.9957L401.471 65.654L383.424 78.4231L378.754 90.5712L384.909 105.662L384.72 110.656V122.089L405.75 124.059Z" fill="#FFBE9D"/>
<path d="M416.049 88.5734C416.043 88.7955 415.972 89.0109 415.844 89.1923C415.716 89.3737 415.536 89.5129 415.329 89.5922C415.121 89.6715 414.895 89.6874 414.679 89.6378C414.462 89.5881 414.265 89.4753 414.113 89.3136C413.961 89.1518 413.86 88.9485 413.824 88.7294C413.787 88.5103 413.817 88.2853 413.908 88.083C414 87.8807 414.15 87.7103 414.339 87.5933C414.528 87.4764 414.747 87.4182 414.969 87.4261C415.115 87.4296 415.26 87.4622 415.394 87.5219C415.528 87.5816 415.648 87.6673 415.749 87.7741C415.849 87.8808 415.927 88.0064 415.979 88.1437C416.03 88.2809 416.054 88.427 416.049 88.5734V88.5734Z" fill="#263238"/>
<path d="M416.13 87.3992C415.981 87.5476 415.171 86.8188 413.983 86.7108C412.796 86.6028 411.864 87.1562 411.743 86.9942C411.621 86.8322 411.837 86.6568 412.242 86.4003C412.785 86.0731 413.42 85.931 414.051 85.9954C414.678 86.0482 415.27 86.3041 415.738 86.7243C416.089 87.0617 416.197 87.3452 416.13 87.3992Z" fill="#263238"/>
<path d="M401.93 87.2102C402.109 87.341 402.245 87.5219 402.321 87.73C402.397 87.9381 402.409 88.1641 402.357 88.3794C402.305 88.5947 402.19 88.7896 402.026 88.9395C401.863 89.0894 401.659 89.1875 401.44 89.2215C401.221 89.2555 400.997 89.2238 400.796 89.1304C400.595 89.037 400.427 88.8861 400.311 88.6968C400.196 88.5075 400.14 88.2884 400.149 88.067C400.159 87.8456 400.233 87.632 400.364 87.4531C400.451 87.3344 400.56 87.2339 400.686 87.1574C400.812 87.0809 400.951 87.0299 401.097 87.0073C401.242 86.9848 401.391 86.9911 401.534 87.0259C401.676 87.0607 401.811 87.1233 401.93 87.2102V87.2102Z" fill="#263238"/>
<path d="M402.807 86.9807C402.659 87.1157 401.862 86.3868 400.661 86.2923C399.46 86.1978 398.542 86.7378 398.42 86.5623C398.299 86.3868 398.515 86.2383 398.92 85.9819C399.463 85.6536 400.097 85.507 400.729 85.5634C401.361 85.62 401.958 85.8806 402.429 86.3058C402.78 86.6298 402.888 86.9132 402.807 86.9807Z" fill="#263238"/>
<path d="M406.816 97.2661C407.463 97.122 408.125 97.0585 408.787 97.0772C409.097 97.0772 409.394 97.0772 409.475 96.8207C409.516 96.4849 409.465 96.1442 409.327 95.8354C409.097 95.039 408.854 94.2021 408.585 93.3247C407.883 91.1858 407.342 88.9976 406.965 86.7783C407.265 87.3672 407.501 87.9873 407.667 88.6275C408.045 89.7883 408.544 91.3945 409.016 93.1898C409.259 94.0671 409.502 94.9175 409.718 95.7139C409.889 96.1153 409.917 96.5629 409.799 96.9827C409.751 97.0877 409.678 97.1794 409.586 97.2499C409.494 97.3205 409.387 97.3677 409.273 97.3876C409.098 97.4129 408.921 97.4129 408.746 97.3876C408.101 97.4236 407.453 97.3828 406.816 97.2661V97.2661Z" fill="#263238"/>
<path d="M402.821 98.265C401.619 97.4281 406.101 100.384 408.557 100.452C408.098 101.056 407.447 101.486 406.711 101.67C405.974 101.854 405.197 101.781 404.508 101.464C402.011 100.29 402.821 98.265 402.821 98.265Z" fill="white"/>
<path d="M406.668 112.154C402.533 111.85 398.571 110.37 395.248 107.889C395.248 107.889 397.651 114.368 406.411 114.287L406.668 112.154Z" fill="#EB996E"/>
<path d="M385.935 93.0008C385.935 93.0008 385.813 93.0953 385.597 93.2168C385.293 93.3595 384.946 93.3835 384.625 93.2843C384.127 93.0109 383.711 92.6086 383.421 92.1194C383.132 91.6302 382.979 91.0722 382.979 90.5037C382.918 89.868 383.001 89.2268 383.222 88.6275C383.277 88.3921 383.39 88.1742 383.55 87.9929C383.711 87.8116 383.913 87.6726 384.14 87.5881C384.284 87.537 384.442 87.5388 384.585 87.5932C384.729 87.6475 384.848 87.751 384.922 87.8851C385.03 88.0876 384.99 88.2495 385.03 88.2495C385.071 88.2495 385.192 88.1146 385.111 87.8176C385.059 87.6358 384.944 87.4782 384.787 87.3722C384.682 87.2994 384.563 87.2487 384.438 87.2232C384.313 87.1977 384.184 87.1978 384.059 87.2237C383.758 87.3021 383.482 87.4561 383.258 87.6711C383.033 87.8861 382.867 88.1549 382.776 88.452C382.5 89.1175 382.389 89.8399 382.452 90.5577C382.46 91.2212 382.662 91.8678 383.034 92.4173C383.406 92.9668 383.931 93.395 384.544 93.6487C384.746 93.6956 384.955 93.6956 385.156 93.6488C385.358 93.602 385.545 93.5096 385.705 93.3787C385.935 93.1358 385.962 93.0143 385.935 93.0008Z" fill="#EB996E"/>
<path d="M419.477 75.44C419.002 75.5995 418.507 75.6948 418.006 75.7235C419.647 74.8621 420.995 73.5326 421.88 71.9036C422.526 70.7782 422.867 69.503 422.867 68.2051C422.867 66.9073 422.526 65.6321 421.88 64.5067C421.183 63.4181 420.11 62.624 418.865 62.2755C417.621 61.927 416.292 62.0486 415.131 62.617C415.578 61.6883 415.672 60.6289 415.397 59.6357C415.121 58.6426 414.494 57.7833 413.633 57.2178C412.737 56.6868 411.733 56.3638 410.696 56.2727C409.659 56.1816 408.614 56.3247 407.639 56.6914C405.696 57.4405 403.875 58.478 402.24 59.7689C402.118 59.0707 401.83 58.4119 401.4 57.8482C400.97 57.2845 400.411 56.8322 399.77 56.5295C398.481 55.931 397.038 55.7471 395.64 56.003C393.609 56.351 391.734 57.3143 390.269 58.7628C388.803 60.2114 387.818 62.0751 387.447 64.1018C386.809 63.4484 386.015 62.97 385.139 62.7127C384.263 62.4553 383.336 62.4277 382.447 62.6324C381.557 62.8372 380.735 63.2674 380.06 63.8817C379.385 64.496 378.879 65.2737 378.592 66.14C378.598 66.2028 378.598 66.2661 378.592 66.3289C377.783 66.6798 377.103 67.2743 376.648 68.0297C376.264 68.6743 376.028 69.3958 375.956 70.1425C375.883 70.8892 375.977 71.6427 376.23 72.349C376.747 73.7366 377.692 74.9233 378.929 75.737C379.403 76.0703 379.822 76.4756 380.171 76.9383C380.438 77.342 380.601 77.8059 380.644 78.2881C380.522 81.2036 379.037 83.9572 378.309 86.8187C377.31 90.7871 379.51 96.1998 380.779 100.087C382.047 103.975 382.493 105.486 384.963 105.797L385.341 95.3494C382.641 97.5631 379.037 89.9503 381.4 86.9132C383.762 83.8762 386.272 84.9155 386.704 86.8322C386.872 87.5688 387.083 88.2945 387.339 89.0054H390.038L389.741 86.7243C389.741 86.7243 389.188 76.5873 394.034 75.9259C395.299 75.6576 396.618 75.9002 397.705 76.6008C399.266 77.2294 400.958 77.4658 402.632 77.2892C404.359 77.2892 406.681 75.3185 406.681 73.6043C407.67 74.7577 408.923 75.6556 410.332 76.2219C411.742 76.7882 413.268 77.0062 414.78 76.8573C415.562 76.7755 416.329 76.5894 417.061 76.3039C417.974 76.5568 418.942 76.5333 419.842 76.2364C420.768 75.9356 421.579 75.3557 422.163 74.5761C422.595 73.9687 422.676 73.5098 422.595 73.4693C421.706 74.3384 420.644 75.01 419.477 75.44V75.44ZM379.253 75.1161C378.154 74.3514 377.315 73.2678 376.851 72.0116C376.632 71.4024 376.546 70.7534 376.6 70.1084C376.653 69.4633 376.845 68.8373 377.161 68.2726C377.445 67.7309 377.857 67.2674 378.363 66.9228C377.904 69.9869 379.901 73.0914 380.428 76.2904C380.103 75.8553 379.727 75.461 379.307 75.1161H379.253Z" fill="#EE4248"/>
<path d="M465.883 88.1145V105.513C465.883 107.407 466.635 109.223 467.974 110.562C469.313 111.901 471.129 112.654 473.023 112.654H503.164V122.602L508.563 113.086C510.163 112.97 511.659 112.252 512.751 111.078C513.842 109.903 514.449 108.359 514.448 106.755V88.1145C514.447 87.17 514.257 86.2352 513.892 85.3642C513.526 84.4932 512.992 83.7034 512.319 83.0406C511.646 82.3777 510.848 81.855 509.972 81.5026C509.095 81.1502 508.158 80.9752 507.213 80.9877H473.023C471.132 80.9877 469.318 81.7381 467.979 83.0743C466.64 84.4104 465.886 86.2231 465.883 88.1145V88.1145Z" fill="#EE4248"/>
<path d="M482.283 97.7385C482.283 98.3205 482.11 98.8894 481.787 99.3733C481.464 99.8572 481.004 100.234 480.466 100.457C479.929 100.68 479.337 100.738 478.766 100.625C478.195 100.511 477.671 100.231 477.26 99.8192C476.848 99.4077 476.568 98.8834 476.454 98.3126C476.341 97.7418 476.399 97.1501 476.622 96.6125C476.844 96.0748 477.222 95.6152 477.705 95.2919C478.189 94.9686 478.758 94.796 479.34 94.796C480.121 94.796 480.869 95.106 481.421 95.6578C481.973 96.2097 482.283 96.9581 482.283 97.7385Z" fill="white"/>
<path d="M493.459 97.7385C493.459 98.3205 493.286 98.8894 492.963 99.3733C492.64 99.8572 492.18 100.234 491.643 100.457C491.105 100.68 490.513 100.738 489.942 100.625C489.372 100.511 488.847 100.231 488.436 99.8192C488.024 99.4077 487.744 98.8834 487.631 98.3126C487.517 97.7418 487.575 97.1501 487.798 96.6125C488.021 96.0748 488.398 95.6152 488.882 95.2919C489.366 94.9686 489.935 94.796 490.517 94.796C491.297 94.796 492.045 95.106 492.597 95.6578C493.149 96.2097 493.459 96.9581 493.459 97.7385Z" fill="white"/>
<path d="M504.635 97.7385C504.635 98.3205 504.463 98.8894 504.139 99.3733C503.816 99.8572 503.357 100.234 502.819 100.457C502.281 100.68 501.69 100.738 501.119 100.625C500.548 100.511 500.024 100.231 499.612 99.8192C499.201 99.4077 498.92 98.8834 498.807 98.3126C498.693 97.7418 498.752 97.1501 498.974 96.6125C499.197 96.0748 499.574 95.6152 500.058 95.2919C500.542 94.9686 501.111 94.796 501.693 94.796C502.473 94.796 503.222 95.106 503.774 95.6578C504.325 96.2097 504.635 96.9581 504.635 97.7385Z" fill="white"/>
<path d="M489.666 139.825C489.059 138.475 450.725 172.314 443.085 173.475L420.733 144.347C420.733 144.347 416.089 136.99 406.114 124.383C399.689 116.285 381.94 117.931 377.269 127.852C369.346 144.684 369.076 166.996 362.948 202.847L357.765 233.257C357.765 233.257 365.418 232.353 365.391 232.421L419.815 226.765L421.165 190.321C431.963 201.227 435.256 203.508 440.858 202.644C454.936 200.458 504.19 156.157 504.19 156.157C504.19 156.157 490.26 141.202 489.666 139.825Z" fill="#455A64"/>
<path d="M497.549 162.353C496.566 161.755 495.659 161.039 494.85 160.22C490.638 156.481 486.968 152.175 483.943 147.424C483.261 146.473 482.703 145.439 482.283 144.347C483.013 145.223 483.676 146.152 484.267 147.127C485.509 148.869 487.277 151.244 489.396 153.728C491.516 156.211 493.567 158.331 495.092 159.842C495.979 160.61 496.801 161.45 497.549 162.353V162.353Z" fill="#263238"/>
<path d="M440.912 185.016C441.143 181.102 441.832 177.229 442.963 173.475C442.75 177.391 442.061 181.266 440.912 185.016Z" fill="#263238"/>
<path d="M445.798 183.815C445.007 182.229 444.431 180.545 444.084 178.807C443.505 177.134 443.155 175.391 443.044 173.624C443.828 175.213 444.404 176.896 444.759 178.631C445.33 180.306 445.68 182.049 445.798 183.815Z" fill="#263238"/>
<path opacity="0.2" d="M392.265 152.081L420.597 205.641L421.232 189.754L392.265 152.081Z" fill="black"/>
<path d="M390.43 149.476C390.924 149.977 391.376 150.519 391.779 151.096L395.154 155.618C398.002 159.451 401.984 164.702 406.452 170.465L417.925 185.164L421.367 189.646C421.81 190.178 422.208 190.747 422.555 191.346C422.064 190.876 421.612 190.365 421.205 189.821C420.273 188.687 419.059 187.23 417.587 185.475C414.564 181.776 410.42 176.647 405.952 170.897C401.484 165.147 397.556 159.829 394.803 155.928C393.453 153.971 392.333 152.378 391.604 151.258C391.159 150.701 390.766 150.104 390.43 149.476V149.476Z" fill="#263238"/>
<path d="M391.321 166.213C391.09 165.691 390.922 165.142 390.821 164.58C390.551 163.514 390.2 161.989 389.782 160.112L390.2 160.315L384.626 163.325L384.248 163.527L384.126 163.109C383.924 162.38 383.708 161.611 383.478 160.828L382.506 157.332L383.006 157.534L377.512 160.625L377.175 160.814V160.436C376.855 158.771 376.666 157.083 376.608 155.388C377.096 157.013 377.457 158.674 377.688 160.355L377.296 160.166L382.695 156.94L383.073 156.711L383.195 157.143C383.505 158.263 383.843 159.437 384.18 160.639C384.41 161.422 384.626 162.191 384.828 162.92L384.329 162.717L389.957 159.788L390.295 159.599L390.362 159.977C390.713 161.854 390.997 163.406 391.159 164.486C391.285 165.052 391.34 165.633 391.321 166.213Z" fill="#263238"/>
<path d="M397.975 135.938C397.437 135.731 396.928 135.455 396.463 135.114C395.532 134.534 394.222 133.683 392.63 132.631L393.062 132.482C392.495 134.277 391.86 136.329 391.172 138.529L391.037 138.948L390.659 138.732L388.607 137.53L385.476 135.695L385.975 135.492L384.18 141.539L384.072 141.904L383.775 141.674C382.39 140.696 381.081 139.613 379.861 138.435C381.336 139.27 382.748 140.213 384.085 141.256L383.681 141.391C384.153 139.609 384.706 137.557 385.314 135.317L385.435 134.885L385.813 135.114L388.958 136.923L391.01 138.124L390.51 138.313L392.481 132.28L392.616 131.915L392.927 132.131C394.479 133.238 395.748 134.156 396.625 134.831C397.119 135.143 397.572 135.514 397.975 135.938V135.938Z" fill="#263238"/>
<path d="M417.857 146.344C417.383 146.018 416.952 145.633 416.575 145.197C415.792 144.428 414.685 143.307 413.362 141.931H413.821C412.877 143.564 411.797 145.413 410.649 147.424L410.433 147.789L410.109 147.492L408.368 145.886L405.669 143.415L406.209 143.321C405.075 145.359 404.035 147.208 403.131 148.815L402.942 149.152L402.699 148.869C401.564 147.599 400.526 146.245 399.595 144.819C400.853 145.955 402.026 147.182 403.104 148.491H402.672L405.601 142.916L405.817 142.525L406.141 142.822L408.841 145.292L410.568 146.911H410.042L413.308 141.512L413.511 141.188L413.767 141.472C415.117 142.822 416.089 144.063 416.791 144.9C417.212 145.33 417.571 145.816 417.857 146.344V146.344Z" fill="#E0E0E0"/>
<path d="M470.283 180.427C470.283 180.427 469.824 179.995 469.149 179.144C468.474 178.294 467.516 177.039 466.382 175.5H466.841L463.008 180.548L462.738 180.886L462.468 180.562L460.929 178.739L458.621 175.959H459.161L455.422 181.021L455.193 181.331L454.99 181.021C454.025 179.628 453.163 178.166 452.412 176.647C453.518 177.918 454.524 179.271 455.422 180.697H454.99C456.056 179.198 457.271 177.457 458.608 175.54L458.864 175.189L459.147 175.527L461.483 178.308L463.008 180.13H462.468L466.396 175.163L466.639 174.852L466.855 175.163C467.948 176.742 468.825 178.038 469.433 178.955C469.769 179.413 470.054 179.907 470.283 180.427V180.427Z" fill="#263238"/>
<path d="M437.821 177.7C437.336 177.423 436.883 177.092 436.471 176.715C435.607 176.04 434.379 175.055 432.908 173.853L433.353 173.745L430.789 179.522L430.627 179.914L430.276 179.657L428.345 178.308L425.416 176.148L425.943 175.999C425.052 178.159 424.242 180.049 423.527 181.817L423.378 182.181L423.108 181.911C421.831 180.801 420.644 179.592 419.558 178.294C420.939 179.273 422.243 180.356 423.459 181.534L423.041 181.628C423.702 179.9 424.472 177.916 425.308 175.756L425.47 175.338L425.821 175.594L428.764 177.727L430.681 179.077L430.154 179.225L432.773 173.448L432.935 173.097L433.218 173.34C434.649 174.609 435.823 175.648 436.633 176.391C437.443 177.133 437.862 177.646 437.821 177.7Z" fill="#E0E0E0"/>
<path d="M484.267 170.074C484.083 169.532 483.966 168.97 483.916 168.4C483.754 167.307 483.538 165.7 483.295 163.865L483.7 164.094L477.869 166.605L477.478 166.767L477.397 166.348C477.262 165.592 477.113 164.81 476.965 164.013C476.735 162.771 476.519 161.584 476.317 160.436L476.789 160.679L471.053 163.325L470.702 163.473V163.095C470.536 161.409 470.504 159.712 470.607 158.02C470.942 159.684 471.146 161.372 471.215 163.068L470.85 162.839L476.533 160.139L476.924 159.937L477.005 160.382C477.221 161.53 477.451 162.717 477.68 163.946C477.829 164.756 477.964 165.538 478.098 166.281L477.626 166.024L483.498 163.635L483.862 163.487V163.865C484.038 165.768 484.173 167.334 484.24 168.427C484.311 168.973 484.32 169.526 484.267 170.074V170.074Z" fill="#E0E0E0"/>
<path d="M419.558 155.685C419.116 156.035 418.636 156.334 418.127 156.576C417.182 157.116 415.806 157.926 414.078 158.776L414.159 158.317L418.573 162.866L418.87 163.176L418.505 163.406L416.481 164.634L413.376 166.524V165.984L417.83 170.438L418.1 170.722L417.749 170.87C416.23 171.621 414.655 172.253 413.039 172.76C414.476 171.859 415.979 171.065 417.533 170.384L417.466 170.816L412.904 166.47L412.58 166.173L412.958 165.943L416.062 164.04L418.087 162.812V163.338C416.508 161.665 415.036 160.085 413.754 158.709L413.484 158.425L413.835 158.263C415.549 157.426 416.967 156.738 417.952 156.292C418.458 156.019 418.998 155.815 419.558 155.685V155.685Z" fill="#263238"/>
<path d="M444.327 185.016C443.884 185.383 443.4 185.696 442.883 185.947C441.938 186.487 440.561 187.297 438.833 188.134L438.901 187.689L443.328 192.237L443.625 192.534L443.26 192.764L441.236 194.006L438.118 195.882L438.185 195.355L442.64 199.81L442.91 200.08L442.559 200.228C441.037 200.976 439.462 201.612 437.848 202.131C439.312 201.231 440.842 200.442 442.424 199.769L442.343 200.201L437.794 195.855L437.47 195.544L437.848 195.315L440.939 193.425L442.977 192.183L442.91 192.723L438.577 188.094L438.307 187.81L438.644 187.648C440.358 186.798 441.776 186.123 442.775 185.664C443.262 185.382 443.784 185.164 444.327 185.016V185.016Z" fill="#E0E0E0"/>
<path d="M395.181 184.624C394.955 184.096 394.787 183.543 394.682 182.978C394.412 181.911 394.061 180.386 393.642 178.523L394.061 178.712L388.432 181.749L388.054 181.965L387.946 181.547C387.73 180.805 387.514 180.035 387.298 179.252C386.961 178.051 386.623 176.877 386.313 175.756L386.812 175.959L381.332 179.05L380.995 179.239V178.861C380.685 177.198 380.495 175.516 380.428 173.826C380.919 175.446 381.28 177.102 381.508 178.78L381.116 178.591L386.515 175.365L386.893 175.149L387.015 175.567C387.325 176.688 387.663 177.862 388.014 179.063L388.648 181.358L388.149 181.142L393.777 178.213L394.115 178.038L394.196 178.402C394.547 180.278 394.816 181.83 394.992 182.91C395.123 183.472 395.186 184.048 395.181 184.624Z" fill="#E0E0E0"/>
<path d="M417.668 197.367C417.439 196.839 417.272 196.286 417.169 195.72C416.899 194.653 416.548 193.128 416.13 191.266L416.548 191.454L410.987 194.491L410.609 194.707L410.488 194.289C410.272 193.547 410.056 192.777 409.84 192.008C409.502 190.793 409.178 189.619 408.854 188.498L409.354 188.701L403.874 191.792L403.536 191.981V191.616C403.226 189.949 403.037 188.262 402.969 186.568C403.459 188.189 403.82 189.845 404.049 191.522L403.658 191.346L409.057 188.12L409.435 187.891L409.556 188.323C409.88 189.443 410.204 190.604 410.555 191.805L411.189 194.1L410.704 193.884L416.319 190.955L416.67 190.78L416.737 191.144C417.088 193.02 417.358 194.572 417.533 195.652C417.655 196.215 417.7 196.792 417.668 197.367V197.367Z" fill="#263238"/>
<path d="M384.666 225.415C384.435 224.893 384.267 224.344 384.167 223.782C383.897 222.716 383.546 221.19 383.127 219.328L383.546 219.517L377.985 222.554L377.607 222.756L377.485 222.338C377.269 221.609 377.053 220.839 376.837 220.056L375.865 216.561L376.351 216.763L370.885 219.908L370.547 220.097V219.719C370.236 218.052 370.047 216.365 369.98 214.671C370.469 216.296 370.83 217.957 371.06 219.638L370.669 219.449L376.068 216.223L376.446 215.994L376.567 216.426C376.891 217.546 377.215 218.72 377.566 219.921L378.2 222.203L377.715 222L383.33 219.071L383.681 218.882L383.748 219.26C384.099 221.136 384.369 222.689 384.544 223.768C384.664 224.309 384.705 224.863 384.666 225.415Z" fill="#E0E0E0"/>
<path d="M385.314 195.976C384.802 195.714 384.326 195.387 383.897 195.004C383.019 194.356 381.778 193.385 380.293 192.183L380.738 192.075L378.295 197.933L378.133 198.325L377.782 198.068C377.148 197.636 376.5 197.164 375.838 196.719L372.896 194.599L373.409 194.451L371.06 200.296L370.912 200.647L370.642 200.39C369.358 199.284 368.153 198.089 367.038 196.813C368.438 197.769 369.76 198.834 370.993 199.999L370.574 200.107C371.209 198.379 371.924 196.381 372.774 194.208L372.923 193.79L373.287 194.046L376.284 196.125L378.214 197.475L377.701 197.609L380.252 191.805L380.414 191.454L380.698 191.697C382.142 192.953 383.33 193.979 384.14 194.721C384.579 195.092 384.973 195.513 385.314 195.976V195.976Z" fill="#263238"/>
<path d="M397.084 196.773C396.679 197.169 396.225 197.514 395.734 197.798C394.83 198.406 393.507 199.256 391.887 200.269V199.81L396.625 204.035L396.936 204.331L396.585 204.574L394.654 205.924L391.685 208.016V207.49L396.531 211.647L396.814 211.904L396.49 212.079C395.023 212.932 393.494 213.672 391.914 214.293C393.287 213.29 394.731 212.388 396.234 211.593V212.025L391.374 207.976L391.037 207.692L391.401 207.436L394.358 205.33L396.288 203.981V204.52L391.644 200.215L391.361 199.945L391.685 199.756C393.332 198.797 394.695 198.014 395.667 197.488C396.108 197.192 396.584 196.951 397.084 196.773V196.773Z" fill="#263238"/>
<path d="M410.029 205.978C409.776 206.493 409.458 206.974 409.084 207.409C408.436 208.3 407.477 209.542 406.303 211.053L406.195 210.608L412.08 212.97L412.472 213.119L412.229 213.483L410.879 215.44L408.8 218.423L408.638 217.897L414.51 220.164L414.874 220.313L414.618 220.583C413.537 221.889 412.354 223.108 411.081 224.227C412.033 222.826 413.084 221.496 414.226 220.245L414.334 220.664L408.409 218.545L407.99 218.396L408.247 218.032C408.895 217.073 409.597 216.075 410.298 215.035C410.771 214.374 411.216 213.685 411.648 213.092L411.797 213.605L405.979 211.134L405.628 210.986L405.871 210.689C407.099 209.218 408.112 207.989 408.841 207.207C409.57 206.424 410.029 205.938 410.029 205.978Z" fill="#E0E0E0"/>
<path d="M402.686 227.98C402.686 227.98 402.686 228.128 402.834 228.425C402.983 228.722 403.064 229.195 403.226 229.775C403.55 230.949 404.036 232.691 404.576 234.945C405.116 237.199 405.804 239.952 406.276 243.232C406.598 245.021 406.358 246.864 405.588 248.51C404.734 250.334 403.564 251.993 402.133 253.41V253.18C405.669 269.972 410.623 293.499 416.116 319.523C421.448 345.169 426.213 368.317 429.614 385.122C431.301 393.518 432.638 400.321 433.515 405.032C433.961 407.38 434.285 409.216 434.487 410.431C434.635 411.059 434.708 411.702 434.703 412.348C434.703 412.348 434.595 411.7 434.352 410.458C434.109 409.216 433.718 407.367 433.245 405.059C432.26 400.321 430.856 393.545 429.128 385.19C425.619 368.385 420.8 345.223 415.468 319.644C410.069 293.593 405.183 270.053 401.701 253.261V253.126L401.795 253.032C404.657 250.157 406.587 246.526 405.844 243.259C405.412 240.006 404.751 237.226 404.252 234.972C403.752 232.718 403.32 231.017 403.023 229.789L402.699 228.439C402.677 228.287 402.672 228.133 402.686 227.98V227.98Z" fill="#455A64"/>
<path d="M374.259 231.219C374.259 231.219 374.475 231.516 374.678 232.137C374.966 233.011 375.139 233.918 375.191 234.837C375.414 237.92 374.484 240.977 372.581 243.414C370.678 245.85 367.937 247.493 364.892 248.024C364.002 248.19 363.095 248.244 362.192 248.186C361.855 248.192 361.521 248.133 361.207 248.011C361.207 247.876 362.637 248.011 364.838 247.538C367.707 246.907 370.265 245.294 372.072 242.978C373.878 240.661 374.819 237.787 374.732 234.85C374.646 233.632 374.488 232.419 374.259 231.219V231.219Z" fill="#455A64"/>
<path d="M396.868 232.664C396.868 232.664 396.868 232.461 397.192 232.286C397.394 232.169 397.618 232.093 397.849 232.063C398.081 232.033 398.316 232.049 398.542 232.11C398.891 232.196 399.206 232.385 399.447 232.652C399.688 232.919 399.843 233.252 399.892 233.608C399.957 234.055 399.872 234.511 399.649 234.903C399.426 235.295 399.078 235.602 398.661 235.774C398.244 235.946 397.781 235.974 397.346 235.853C396.911 235.732 396.529 235.47 396.261 235.107C396.04 234.826 395.902 234.489 395.861 234.134C395.821 233.778 395.88 233.419 396.031 233.095C396.585 232.002 397.476 231.975 397.449 232.056C397.422 232.137 396.801 232.38 396.504 233.271C396.416 233.511 396.394 233.77 396.439 234.021C396.484 234.272 396.595 234.507 396.76 234.702C396.961 234.929 397.224 235.092 397.517 235.171C397.809 235.25 398.119 235.242 398.407 235.147C398.677 235.017 398.902 234.808 399.051 234.548C399.201 234.288 399.268 233.988 399.244 233.689C399.225 233.438 399.132 233.198 398.975 233.001C398.819 232.803 398.607 232.658 398.366 232.583C397.871 232.449 397.346 232.477 396.868 232.664Z" fill="#455A64"/>
<path d="M425.403 235.66C424.633 236.203 423.725 236.517 422.784 236.564C420.515 236.905 418.198 236.408 416.268 235.166C414.339 233.924 412.927 232.022 412.296 229.816C411.971 228.955 411.883 228.023 412.04 227.116C412.161 227.116 412.188 228.169 412.755 229.721C413.47 231.748 414.837 233.481 416.642 234.649C418.447 235.816 420.588 236.352 422.73 236.173C424.377 235.957 425.362 235.552 425.403 235.66Z" fill="#455A64"/>
<path d="M440.223 442.03C439.784 442.151 439.329 442.205 438.874 442.191L435.202 442.394L423.054 442.974L410.906 443.609L407.221 443.757C406.773 443.821 406.319 443.821 405.871 443.757C406.306 443.609 406.761 443.527 407.221 443.514C408.071 443.406 409.327 443.271 410.879 443.136C413.97 442.853 418.262 442.542 423.027 442.299C427.792 442.056 432.071 441.949 435.175 441.935C436.727 441.935 437.983 441.935 438.86 441.935C439.317 441.904 439.775 441.935 440.223 442.03V442.03Z" fill="#455A64"/>
<path d="M378.606 246.62C378.795 246.62 389.404 290.394 402.349 344.48C415.293 398.566 425.592 442.475 425.403 442.515C425.214 442.556 414.605 398.755 401.66 344.642C388.716 290.529 378.417 246.661 378.606 246.62Z" fill="#455A64"/>
<path d="M413.147 248.362C413.239 248.451 413.321 248.55 413.39 248.659L414.051 249.536L416.562 252.978L425.659 265.679L439.09 284.576L446.986 295.766C449.686 299.654 452.385 304.013 453.101 309.143C453.816 314.272 452.318 319.226 450.765 323.666C449.213 328.107 447.512 332.427 445.947 336.489C442.788 344.588 439.792 351.904 437.187 357.965C434.581 364.025 432.381 368.898 430.843 372.245L429.02 376.092L428.534 377.078C428.413 377.294 428.359 377.415 428.345 377.402C428.368 377.279 428.409 377.161 428.467 377.051C428.575 376.781 428.723 376.443 428.899 376.025L430.586 372.137C432.057 368.749 434.19 363.85 436.728 357.776C439.265 351.702 442.221 344.413 445.339 336.26C446.892 332.211 448.498 327.905 450.104 323.437C451.71 318.969 453.114 314.177 452.412 309.237C451.71 304.297 449.051 300.032 446.419 296.158L438.563 284.954L425.254 265.909L416.332 253.072L413.943 249.563C413.687 249.185 413.484 248.888 413.336 248.645C413.187 248.402 413.133 248.362 413.147 248.362Z" fill="#455A64"/>
<path d="M481.743 141.202L511.884 119.2L513.368 121.562L483.417 143.834L481.743 141.202Z" fill="#263238"/>
<path d="M489.194 140.527C489.194 140.527 493.243 129.999 494.148 127.758C495.052 125.517 496.591 121.616 497.171 121.535C497.752 121.454 499.871 121.778 497.104 128.473C494.337 135.168 500.357 131.078 500.357 131.078L506.161 126.921C506.161 126.921 510.75 140.635 508.145 144.765C506.094 147.856 503.792 150.773 501.261 153.485L489.194 140.527Z" fill="#FFBE9D"/>
<path d="M106.663 315.041C107.055 312.76 106.191 304.418 106.191 304.418C106.191 304.418 97.4442 303.487 96.9178 294.821C96.3914 286.156 96.9178 266.152 96.9178 266.152L112.845 258.364L130.393 271.632L127.693 315.001L106.663 315.041Z" fill="#B78876"/>
<path d="M99.3339 280.649C99.3339 280.942 99.4505 281.224 99.658 281.431C99.8656 281.639 100.147 281.755 100.441 281.755C100.734 281.755 101.016 281.639 101.223 281.431C101.431 281.224 101.548 280.942 101.548 280.649C101.548 280.503 101.519 280.359 101.463 280.225C101.408 280.091 101.326 279.969 101.223 279.866C101.121 279.763 100.999 279.682 100.864 279.626C100.73 279.57 100.586 279.542 100.441 279.542C100.295 279.542 100.151 279.57 100.017 279.626C99.8828 279.682 99.7608 279.763 99.658 279.866C99.5552 279.969 99.4737 280.091 99.4181 280.225C99.3625 280.359 99.3339 280.503 99.3339 280.649V280.649Z" fill="#263238"/>
<path d="M97.7143 279.852C97.8492 279.987 98.6726 279.299 99.8604 279.231C101.048 279.164 101.953 279.744 102.088 279.582C102.223 279.42 101.993 279.245 101.602 278.975C101.074 278.629 100.449 278.463 99.8199 278.502C99.1903 278.546 98.5904 278.787 98.1057 279.191C97.7548 279.501 97.6333 279.785 97.7143 279.852Z" fill="#263238"/>
<path d="M113.358 281.553C113.97 281.553 114.465 281.057 114.465 280.446C114.465 279.835 113.97 279.339 113.358 279.339C112.747 279.339 112.252 279.835 112.252 280.446C112.252 281.057 112.747 281.553 113.358 281.553Z" fill="#263238"/>
<path d="M110.618 279.636C110.767 279.785 111.577 279.083 112.778 279.029C113.979 278.975 114.87 279.542 114.992 279.38C115.113 279.218 114.911 279.042 114.519 278.772C113.991 278.428 113.367 278.263 112.737 278.3C112.107 278.338 111.505 278.579 111.023 278.988C110.659 279.299 110.551 279.582 110.618 279.636Z" fill="#263238"/>
<path d="M106.515 289.611C105.876 289.445 105.218 289.363 104.558 289.368C104.261 289.368 103.964 289.301 103.896 289.085C103.859 288.751 103.92 288.413 104.072 288.113L104.881 285.643C105.655 283.543 106.264 281.385 106.704 279.191C105.796 281.236 105.034 283.342 104.423 285.494C104.139 286.358 103.883 287.195 103.64 287.978C103.454 288.37 103.412 288.813 103.518 289.233C103.564 289.34 103.634 289.435 103.723 289.51C103.812 289.585 103.918 289.638 104.031 289.665C104.201 289.69 104.374 289.69 104.544 289.665C105.201 289.727 105.862 289.709 106.515 289.611Z" fill="#263238"/>
<path d="M110.47 290.745C108.722 291.851 106.738 292.531 104.679 292.729C105.118 293.336 105.748 293.777 106.468 293.98C107.189 294.183 107.957 294.137 108.648 293.85C111.199 292.783 110.47 290.745 110.47 290.745Z" fill="white"/>
<path d="M106.191 304.418C110.313 304.246 114.299 302.897 117.678 300.531C117.678 300.531 115.073 306.902 106.38 306.551L106.191 304.418Z" fill="#A36957"/>
<path d="M141.879 278.057C141.879 278.057 145.416 298.047 128.53 301.651L129.029 277.571L141.879 278.057Z" fill="#263238"/>
<path d="M141.326 273.63C140.272 269.352 138.301 265.354 135.549 261.914C137.979 262.926 139.598 263.938 139.936 263.614C140.273 263.29 139.652 262.683 138.586 261.779C137.201 260.645 135.617 259.78 133.916 259.227L133.119 259.012C134.234 258.568 135.251 257.912 136.116 257.081C137.151 256.111 137.867 254.85 138.169 253.463C138.47 252.077 138.343 250.632 137.803 249.32C137.194 248.204 136.267 247.295 135.14 246.706C134.013 246.117 132.737 245.876 131.473 246.013C130.217 246.19 129.02 246.66 127.979 247.385C126.938 248.109 126.082 249.068 125.48 250.184C125.189 250.718 124.949 251.278 124.764 251.858C124.805 250.899 124.904 249.943 125.061 248.996C125.601 245.662 126.843 243.165 126.64 243.057C125.36 244.752 124.563 246.763 124.332 248.875C124.332 249.199 124.251 249.509 124.211 249.819C123.946 248.956 123.621 248.113 123.239 247.295C122.416 245.554 121.633 244.596 121.403 244.744C120.931 244.974 122.47 248.632 123.104 253.572C121.586 253.067 120.005 252.771 118.407 252.694C115.464 252.694 110.578 251.345 103.667 256.892C101.327 258.386 99.3044 260.326 97.7144 262.602C95.4305 265.945 94.1433 269.867 94.0025 273.913C93.9607 275.128 94.0376 276.344 94.2319 277.544C94.2732 277.987 94.3872 278.42 94.5694 278.826C94.7044 278.826 94.3129 276.95 94.5694 273.94C94.7212 271.709 95.2175 269.514 96.0407 267.434C95.0124 271.033 95.2409 274.875 96.6886 278.327L112.144 275.911C111.145 272.523 111.874 267.151 112.346 264.519C115.046 277.139 125.912 283.2 125.912 283.2L142.176 280.649C141.947 279.177 141.677 274.953 141.326 273.63Z" fill="#263238"/>
<path d="M178.742 466.947C179.241 467.189 219.114 475.045 217.643 469.646C216.172 464.247 179.093 455.77 179.093 455.77L178.742 466.947Z" fill="#EE4248"/>
<path d="M196.87 463.424C197.059 463.424 197.342 464.342 197.329 465.543C197.315 466.744 197.032 467.689 196.843 467.662C196.654 467.635 196.614 466.69 196.627 465.543C196.641 464.396 196.681 463.437 196.87 463.424Z" fill="#263238"/>
<path d="M194.751 462.695C194.926 462.695 195.277 463.761 195.142 465.165C195.007 466.569 194.508 467.595 194.332 467.527C194.157 467.46 194.332 466.407 194.44 465.097C194.548 463.788 194.548 462.722 194.751 462.695Z" fill="#263238"/>
<path d="M192.173 462.479C192.362 462.479 192.632 463.532 192.659 464.881C192.686 466.231 192.456 467.311 192.267 467.298C192.078 467.284 191.984 466.218 191.957 464.895C191.93 463.572 191.984 462.492 192.173 462.479Z" fill="#263238"/>
<path d="M187.313 458.578C187.522 458.567 187.732 458.59 187.934 458.645C188.339 458.645 188.933 458.834 189.689 459.01C191.214 459.334 193.414 459.86 196.1 460.603C198.786 461.345 201.972 462.276 205.454 463.464C207.196 464.058 209.045 464.665 210.854 465.462C212.814 466.253 214.616 467.391 216.172 468.823C216.414 469.017 216.612 469.261 216.752 469.538C216.838 469.735 216.851 469.955 216.789 470.16C216.727 470.365 216.595 470.542 216.415 470.659C215.895 470.929 215.312 471.054 214.727 471.023C213.688 471.104 212.662 471.144 211.663 471.171C209.652 471.171 207.709 471.171 205.859 471.023C202.174 470.794 198.881 470.335 196.127 469.903C193.374 469.471 191.16 469.039 189.635 468.728L187.88 468.364C187.67 468.336 187.465 468.276 187.273 468.188C188.079 468.215 188.883 468.305 189.675 468.458L196.195 469.403C198.894 469.781 202.242 470.186 205.9 470.389C207.736 470.483 209.652 470.537 211.65 470.483C212.635 470.483 213.661 470.416 214.673 470.335C215.138 470.361 215.601 470.273 216.023 470.078C216.145 469.984 216.158 469.93 216.118 469.808C216.005 469.625 215.864 469.461 215.699 469.322C214.2 467.951 212.467 466.858 210.584 466.096C208.775 465.313 206.939 464.746 205.184 464.072C201.715 462.87 198.557 461.871 195.898 461.075C193.239 460.279 191.052 459.725 189.554 459.266C188.793 459.086 188.044 458.856 187.313 458.578V458.578Z" fill="#263238"/>
<path d="M208.492 464.503C208.681 464.571 208.289 466.083 208.492 467.945C208.694 469.808 209.207 471.252 209.018 471.347C208.299 470.368 207.873 469.205 207.79 467.994C207.706 466.782 207.968 465.572 208.546 464.503H208.492Z" fill="#263238"/>
<path d="M46.9351 459.05C46.3817 459.05 6.14445 464.598 9.26247 469.12C12.3805 473.642 50.2286 469.673 50.2286 469.673L46.9351 459.05Z" fill="#EE4248"/>
<path d="M30.8728 468.296C30.7108 468.377 30.1304 467.568 29.7525 466.434C29.3745 465.3 29.388 464.328 29.523 464.328C29.658 464.328 30.0494 465.178 30.4139 466.272C30.7783 467.365 31.0483 468.202 30.8728 468.296Z" fill="#263238"/>
<path d="M33.1268 468.283C32.9648 468.377 32.2764 467.446 31.939 466.083C31.6015 464.719 31.75 463.572 31.939 463.572C32.128 463.572 32.3034 464.638 32.6274 465.907C32.9513 467.176 33.3023 468.188 33.1268 468.283Z" fill="#263238"/>
<path d="M35.6238 467.649C35.4483 467.729 34.8544 466.798 34.382 465.529C33.9096 464.261 33.7746 463.167 33.9636 463.113C34.1525 463.059 34.5845 464.058 35.0434 465.286C35.5023 466.515 35.7993 467.568 35.6238 467.649Z" fill="#263238"/>
<path d="M41.5361 469.727C41.3417 469.803 41.1369 469.848 40.9287 469.862L39.147 470.092C37.5948 470.281 35.3541 470.497 32.5735 470.672C29.793 470.848 26.4725 470.996 22.7876 471.023C20.9383 471.023 19.0081 471.023 16.9835 470.902C14.874 470.81 12.8002 470.324 10.8689 469.471C10.5725 469.366 10.3012 469.201 10.0725 468.985C9.93878 468.821 9.86572 468.616 9.86572 468.404C9.86572 468.193 9.93878 467.988 10.0725 467.824C10.4699 467.392 10.9792 467.079 11.5438 466.92C12.5022 466.501 13.447 466.137 14.3919 465.772C16.2816 465.084 18.1443 464.517 19.926 464.018C23.4894 463.032 26.7559 462.398 29.496 461.912C32.2361 461.426 34.4767 461.102 36.0155 460.9L37.7972 460.67C38.0029 460.637 38.2125 460.637 38.4181 460.67C37.6458 460.907 36.856 461.083 36.056 461.197L29.5905 462.425C26.8909 462.978 23.6244 463.667 20.142 464.665C18.3737 465.178 16.538 465.745 14.7428 466.447C13.8115 466.812 12.8666 467.176 11.9217 467.581C11.4815 467.708 11.0786 467.939 10.7474 468.256C10.6664 468.391 10.6664 468.431 10.7474 468.539C10.9163 468.679 11.1081 468.789 11.3143 468.863C13.1731 469.667 15.1629 470.124 17.1859 470.213C19.1566 470.375 21.1003 470.362 22.936 470.375C26.6075 470.375 29.9144 470.294 32.695 470.186C35.4756 470.078 37.7162 469.916 39.2685 469.822C40.0214 469.74 40.779 469.708 41.5361 469.727V469.727Z" fill="#263238"/>
<path d="M19.5478 471.077C19.3318 471.077 19.2239 469.525 18.468 467.81C17.7121 466.096 16.7133 464.908 16.8617 464.773C17.0102 464.638 18.333 465.651 19.1159 467.473C19.7173 468.574 19.8719 469.865 19.5478 471.077Z" fill="#263238"/>
<path d="M171.696 410.201H151.22L75.6318 412.159L54.0352 409.364C50.6742 408.622 48.4605 408.312 47.7451 408.541C44.8442 409.75 42.3021 411.684 40.3618 414.156C32.1281 423.983 37.3113 439.127 49.7024 442.502L61.3375 445.66L35.8805 453.84L44.4787 478.244C44.4787 478.244 82.4887 470.024 119.352 461.345L178.337 477.299L186.841 449.912L176.839 446.659C183.116 444.742 187.084 443.231 187.637 442.313C191.349 436.563 197.923 409.823 171.602 410.228" fill="#455A64"/>
<path opacity="0.2" d="M176.515 446.754L132.674 464.908L119.419 461.318L176.515 446.754Z" fill="black"/>
<path opacity="0.2" d="M61.5264 412.253L117.651 428.329L160.398 413.751L61.5264 412.253Z" fill="black"/>
<path d="M53.5357 476.476C52.8189 475.366 52.2174 474.186 51.7404 472.953C50.7416 470.726 49.4458 467.554 48.177 464.099C46.9082 460.643 45.8689 457.35 45.2075 455.028C44.7803 453.779 44.4774 452.49 44.3031 451.181C44.8529 452.375 45.3044 453.612 45.6529 454.88C46.4358 457.188 47.5291 460.373 48.7979 463.856C50.0667 467.338 51.295 470.483 52.1724 472.751C52.721 473.956 53.1768 475.201 53.5357 476.476V476.476Z" fill="#263238"/>
<path d="M188.839 419.299C188.729 419.365 188.611 419.415 188.488 419.448L187.435 419.839L183.385 421.27L168.416 426.358C155.715 430.597 138.141 436.333 118.663 442.448C99.1856 448.562 81.4763 453.894 68.6398 457.674L53.4142 462.074L49.2703 463.221L48.177 463.505C48.0545 463.543 47.9274 463.566 47.7991 463.572L48.1635 463.437L49.2298 463.086L53.2792 461.804L68.4374 457.188C81.2469 453.3 98.9156 447.888 118.38 441.773C137.844 435.658 155.445 430.003 168.173 425.886L183.264 421.013L187.381 419.663L188.447 419.34C188.575 419.307 188.707 419.293 188.839 419.299V419.299Z" fill="#263238"/>
<path d="M147.967 418.314C147.694 418.469 147.404 418.592 147.103 418.678L144.592 419.596C142.406 420.379 139.193 421.486 135.279 422.822C127.396 425.522 116.476 429.085 104.396 432.959C92.3149 436.833 81.3276 440.248 73.3504 442.65C69.301 443.852 66.129 444.797 63.9018 445.431L61.3237 446.146C61.0228 446.235 60.7161 446.302 60.4059 446.349C60.6842 446.203 60.9787 446.089 61.2832 446.011L63.8209 445.174L73.2694 442.178L104.234 432.297L135.171 422.35L144.552 419.34L147.116 418.543C147.391 418.437 147.676 418.36 147.967 418.314V418.314Z" fill="#263238"/>
<path d="M117.367 428.235C117.367 428.424 104.774 424.995 89.3455 420.581C73.9174 416.168 61.4723 412.483 61.5263 412.253C61.5803 412.024 74.1198 415.493 89.5344 419.906C104.949 424.32 117.421 428.046 117.367 428.235Z" fill="#263238"/>
<path d="M178.661 448.05C177.278 452.605 175.665 457.087 173.829 461.48C170.981 468.823 168.524 474.708 168.349 474.64C169.728 470.088 171.341 465.61 173.181 461.223C176.029 453.881 178.486 447.982 178.661 448.05Z" fill="#263238"/>
<path d="M173.397 459.361C169.674 458.718 165.991 457.857 162.369 456.783C158.706 455.917 155.1 454.826 151.571 453.516C155.295 454.156 158.977 455.016 162.599 456.094C166.262 456.96 169.868 458.051 173.397 459.361Z" fill="#263238"/>
<path d="M89.4402 436.981C88.7331 436.896 88.0336 436.756 87.348 436.563L81.7059 435.213C76.9547 433.998 70.3812 432.351 63.2138 430.192C57.07 428.386 51.0506 426.181 45.1941 423.591C42.9669 422.566 41.1447 421.675 39.9839 421.013C39.338 420.709 38.7232 420.343 38.1482 419.92C38.8217 420.152 39.4761 420.436 40.1054 420.77C41.3472 421.351 43.1424 422.12 45.3966 423.132C51.2855 425.579 57.3006 427.71 63.4163 429.517C70.5702 431.677 77.1166 433.391 81.8409 434.727L87.4155 436.333C88.1104 436.481 88.7887 436.698 89.4402 436.981V436.981Z" fill="#263238"/>
<path d="M130.933 313.84H129.272L129.029 308.09L106.232 309.44C106.232 309.44 106.461 312.139 106.447 314.015C92.4097 315.365 69.9087 322.573 69.3688 354.172L87.375 354.59C85.8497 369.087 86.0252 377.739 84.5539 383.179C82.0433 392.168 74.093 411.146 75.6858 412.105C77.2785 413.063 151.166 414.426 154.689 412.51C158.212 410.593 151.8 385.824 150.194 379.102C149.182 374.81 148.966 364.983 148.939 357.384L169.618 356.453C169.618 356.453 171.116 313.718 130.933 313.84Z" fill="#EE4248"/>
<path d="M129.151 313.61C128.062 313.932 126.938 314.122 125.803 314.177C123.711 314.42 120.823 314.65 117.624 314.717C114.425 314.785 111.536 314.717 109.444 314.528C108.307 314.51 107.175 314.365 106.069 314.096C107.194 313.963 108.329 313.94 109.457 314.029C111.55 314.029 114.425 314.029 117.556 314.029C120.688 314.029 123.617 313.813 125.655 313.705C126.815 313.561 127.985 313.53 129.151 313.61V313.61Z" fill="#263238"/>
<path d="M110.375 309.251C110.578 309.251 110.726 310.357 110.726 311.721C110.726 313.084 110.578 314.204 110.375 314.204C110.173 314.204 110.024 313.098 110.024 311.721C110.024 310.344 110.119 309.251 110.375 309.251Z" fill="#263238"/>
<path d="M116.409 308.819C116.598 308.819 116.787 310.034 116.827 311.518C116.951 312.427 116.858 313.352 116.557 314.218C116.355 314.218 116.166 313.003 116.125 311.518C115.998 310.609 116.095 309.682 116.409 308.819V308.819Z" fill="#263238"/>
<path d="M122.699 308.603C122.888 308.603 123.158 309.791 123.185 311.302C123.212 312.814 123.009 314.002 122.807 314.002C122.512 313.134 122.402 312.215 122.483 311.302C122.523 309.845 122.523 308.616 122.699 308.603Z" fill="#263238"/>
<path d="M127.261 308.387C127.464 308.387 127.599 309.575 127.788 311.019C127.977 312.463 128.125 313.651 127.936 313.718C127.747 313.786 127.275 312.625 127.099 311.113C126.924 309.602 127.072 308.373 127.261 308.387Z" fill="#263238"/>
<path d="M90.2229 354.253C89.8597 352.023 89.724 349.761 89.818 347.504C89.6749 345.25 89.7744 342.987 90.1149 340.755C90.4716 342.986 90.6072 345.246 90.5199 347.504C90.6456 349.758 90.5461 352.018 90.2229 354.253Z" fill="#263238"/>
<path d="M148.169 356.507C147.623 354.112 147.297 351.672 147.198 349.218C146.872 346.78 146.786 344.316 146.941 341.862C147.808 346.694 148.219 351.597 148.169 356.507V356.507Z" fill="#263238"/>
<path d="M90.2228 354.253C89.1938 354.389 88.1536 354.421 87.1182 354.347H79.6809H72.2301C71.1992 354.421 70.1635 354.389 69.139 354.253C70.1445 353.994 71.1784 353.863 72.2166 353.861C74.1198 353.713 76.7654 353.605 79.6809 353.618C82.5965 353.632 85.242 353.726 87.1452 353.875C88.1824 353.878 89.2155 354.005 90.2228 354.253Z" fill="#263238"/>
<path d="M169.577 356.507C165.922 356.862 162.247 356.979 158.576 356.858C154.901 356.98 151.222 356.862 147.562 356.507C151.222 356.159 154.901 356.042 158.576 356.156C162.247 356.042 165.921 356.159 169.577 356.507V356.507Z" fill="#263238"/>
<path d="M168.673 356.682C168.673 356.682 174.072 407.07 158.63 412.024C143.189 416.977 112.737 393.518 112.737 393.518L121.511 375.755C121.511 375.755 141.758 389.82 146.131 386.648C150.505 383.476 148.223 356.682 148.223 356.682H168.673Z" fill="#B78876"/>
<path d="M69.625 354.253C69.625 354.253 64.1314 404.127 79.5595 409.095C94.9876 414.062 125.452 390.575 125.452 390.575L116.665 372.812C116.665 372.812 96.2969 385.838 92.072 382.544C89.6289 380.628 89.5614 354.509 89.5614 354.509C82.3805 354.199 75.7261 353.888 69.625 354.253Z" fill="#B78876"/>
<path d="M159.062 364.646L148.817 414.858C148.817 414.858 85.863 414.372 85.2151 414.183C84.5672 413.994 78.4662 364.646 78.4662 364.646H159.062Z" fill="#263238"/>
<path d="M113.844 390.09C113.793 390.846 113.97 391.6 114.353 392.254C114.735 392.909 115.306 393.433 115.991 393.759C116.675 394.084 117.442 394.197 118.191 394.081C118.94 393.966 119.637 393.627 120.192 393.111C120.746 392.594 121.133 391.922 121.3 391.183C121.468 390.444 121.41 389.671 121.133 388.965C120.856 388.26 120.373 387.654 119.747 387.226C119.122 386.798 118.381 386.568 117.623 386.567C116.656 386.537 115.717 386.891 115.009 387.551C114.301 388.21 113.883 389.123 113.844 390.09V390.09Z" fill="white"/>
<path d="M127.072 279.92C127.642 279.567 128.291 279.362 128.96 279.322C129.629 279.282 130.298 279.408 130.906 279.69C131.682 280.317 132.193 281.213 132.337 282.201C132.518 283 132.508 283.831 132.309 284.626C132.109 285.421 131.726 286.157 131.189 286.777C130.629 287.374 129.881 287.761 129.07 287.871C128.259 287.982 127.434 287.81 126.735 287.384" fill="#B78876"/>
<path d="M128.692 286.007C128.692 285.899 129.124 285.832 129.623 285.454C129.953 285.24 130.219 284.942 130.395 284.591C130.571 284.24 130.649 283.848 130.622 283.456C130.584 283.069 130.445 282.699 130.22 282.382C129.996 282.065 129.692 281.812 129.34 281.647C128.773 281.378 128.341 281.391 128.328 281.283C128.314 281.175 128.759 280.973 129.515 281.162C130.009 281.308 130.447 281.599 130.774 281.996C131.101 282.394 131.301 282.881 131.349 283.393C131.397 283.906 131.291 284.421 131.043 284.873C130.796 285.324 130.419 285.691 129.961 285.926C129.178 286.223 128.692 286.156 128.692 286.007Z" fill="#A36957"/>
</svg>
